<svg t="1752075877699" class="icon" viewBox="0 0 1633 1024" version="1.1" xmlns="http://www.w3.org/2000/svg" p-id="8044" width="200" height="200"><path d="M380.663737 161.62006l-8.022084 1.495643c-38.297518 10.832079-78.000035 17.403843-113.804815 36.258005-20.803031 4.940153-34.218493 19.262065-45.73041 36.258006-17.35852 28.099954-19.805936 59.281839-19.624645 91.324852 0.498548 116.025618 0.498548 232.051236 0.90645 348.076854 0 54.840234 27.193504 90.327757 78.815839 107.912889a129.894305 129.894305 0 0 1 12.237077 5.710636c18.899485 9.064501 39.385259 13.18885 59.689742 17.857068l35.578168 10.288209c15.998845 14.004655 36.892521 15.228362 55.882651 21.165611 6.934344 2.220803 14.82046 1.495643 21.754804 4.804185 35.351555 5.755958 67.983761 14.321912 86.973891 50.398628 12.599657 23.703671 30.638015 44.597347 46.727504 66.35215 3.263221 4.532251 7.115634 8.565954 5.302734 13.959333-2.266125 6.798376-9.064501 3.943058-13.596752 3.943058-113.306268 0-226.249955 1.540965-339.329611-0.861128a211.112238 211.112238 0 0 1-126.359149-43.418962 361.809574 361.809574 0 0 1-50.761208-44.506702c-20.168516-21.754803-31.725755-49.265565-48.132503-73.377138a248.367339 248.367339 0 0 1-18.944807-96.808875V259.652643a243.381863 243.381863 0 0 1 18.944807-96.990165c14.049977-12.327722 16.99594-30.864627 25.788507-46.138312 11.330627-5.982571 16.769328-16.859973 22.661253-27.193505a213.604976 213.604976 0 0 0 23.884962-25.697861v-0.36258c9.472404-5.438701 19.307388-10.424177 26.060441-19.488678l4.849509-3.217898a103.425961 103.425961 0 0 0 41.334126-21.709481C203.679347 4.033703 244.968151-0.498548 287.661952 0.045323c97.08081 0.997095 194.206943 0.498548 291.287753 0.951772 6.073216 0 14.548525-3.852413 18.129003 4.124348s-4.532251 11.557239-8.339342 16.81465c-12.916915 18.44626-27.873342 35.850103-38.161551 55.656039-18.854163 36.258006-49.854758 51.531691-87.653728 58.058132-28.235922 5.982571-56.653134 11.466594-82.26035 25.969796zM1178.611796 816.666254c38.116228-11.647884 76.640359-22.162706 114.212717-35.26091 48.676373-16.905295 74.555524-52.664753 74.918104-104.241766 0.861128-123.821089 0.271935-247.642178 0.54387-371.644558 0-48.26847-21.437546-83.076155-63.224897-106.145312-15.409652-13.91401-36.258006-12.463689-54.160396-18.899485-9.064501-7.886116-21.800126-4.124348-31.725755-9.064501-7.976761-7.478214-19.216743-4.532251-28.190599-8.747244l-7.840794-0.770483c-13.91401-16.45207-35.714136-15.00175-53.480558-20.168515s-36.258006-13.324817-55.701361-14.865783c-13.00756-6.662409-27.193504-10.469499-39.521226-18.99013-22.661254-31.045917-45.322507-62.00119-67.575858-93.137752-5.393378-7.478214-7.478214-13.868687 5.982571-13.596752 118.427711 0.317258 236.900744 0 355.328455 1.223707a182.559058 182.559058 0 0 1 67.98376 16.180135c8.792566 9.064501 20.621741 12.826269 32.088335 17.086586 14.729815 7.432891 25.561894 20.576418 40.563644 27.601406 10.197564 7.931439 15.998845 20.349806 27.465439 26.921569 15.9082 23.703671 29.867532 48.676373 45.322507 72.516012 15.953522 26.785602 19.352711 56.607811 19.398033 86.747278q0.453225 239.574772 0 479.149545c0 30.139467-3.489833 60.006999-19.488678 86.837923-13.596752 25.244636-30.230112 48.44976-45.322507 72.516011-16.588038 16.99594-36.892521 29.686242-54.160396 45.957023-13.052882 12.373044-33.946558 10.832079-45.866377 25.425926l-4.53225 1.26903c-10.242887 4.532251-22.661254 1.08774-32.043013 8.611276a167.149406 167.149406 0 0 1-42.376544 4.532251c-107.958212 0-215.961746 0.317258-323.96528-0.407902-8.248696 0-25.018024 8.339341-23.023834-12.82627l63.45151-90.645014a262.326671 262.326671 0 0 1 31.725755-17.35852l35.034298-10.560144c27.737374-3.943058 53.253946-14.049977 78.181325-25.244637z" fill="#FE6900" p-id="8045"></path><path d="M782.039859 424.445278c78.543905 0 157.133132 0.407903 235.677037-0.36258 15.9082 0 21.437546 5.121443 21.029643 20.485774-0.634515 24.882056-0.317258 49.854758 0 74.782136 0 14.004655-3.716446 21.528191-20.712386 21.482868q-237.943162-0.951773-475.886324 0c-14.684492 0-20.803031-4.532251-20.712386-19.035452 0-25.697861 0.317258-51.395723-0.453225-77.048262-0.453225-15.36433 5.076121-20.667063 21.029644-20.531096 79.90358 0.679838 159.98845 0.271935 240.027997 0.226612z" fill="#FD6901" p-id="8046"></path><path d="M970.445521 960.610537c3.943058 14.593847 16.180135 8.656599 24.564799 8.656599 118.609001 0 237.172679-0.317258 355.736357-0.634516 3.036608 0 6.027893 0.407903 9.064502 0.589193-23.341091 11.375949-48.404438 9.064501-73.105204 9.064501q-154.096524 0-308.193048-0.407902c-5.484023 0-13.18885 3.399188-16.134813-3.807091-2.447415-6.254506 0.770483-11.647884 8.067407-13.460784z" fill="#E08F4D" p-id="8047"></path><path d="M1396.159829 959.341506a15.636265 15.636265 0 0 1 11.37595-15.092394c31.000595-5.937248 49.17492-30.320757 71.564238-48.44976 5.302733-4.305638 9.381759-9.517726 17.086585-7.840794-25.244636 35.26091-60.097644 56.970391-100.026773 71.382948z" fill="#E2813A" p-id="8048"></path><path d="M1073.916804 126.857697c23.613026-4.532251 43.917509 9.427081 66.306828 12.373045 6.979666 0.90645 14.865782 5.030798 22.933189 5.393378a18.99013 18.99013 0 0 1 19.941903 17.267875c-36.937843-10.016274-74.238267-18.854163-109.18192-35.034298z" fill="#DF7A33" p-id="8049"></path><path d="M258.836838 199.283063c0-3.897736 1.042418-7.704826 5.348056-9.064501 35.850103-10.197564 69.660693-28.689147 108.456759-27.193504-36.665908 16.08949-75.416652 25.607216-113.804815 36.258005z" fill="#E48442" p-id="8050"></path><path d="M1541.418464 162.662478c-17.17723-13.324817-44.461379-56.970391-45.322507-72.516012 23.205124 18.944808 37.119133 43.917509 45.322507 72.516012z" fill="#E67A35" p-id="8051"></path><path d="M458.391836 842.500083c-22.978511 5.846603-43.011059-8.294019-65.037797-9.608371-9.064501-0.54387-11.194659-8.701921-12.599657-16.361425 26.377699 7.070311 53.525881 11.919819 77.637454 25.969796z" fill="#DC7D33" p-id="8052"></path><path d="M1495.869345 887.82259a30.139467 30.139467 0 0 1 14.276589-29.640919c14.321912-10.152242 13.596752-33.44801 31.09124-42.965737-8.520631 28.417212-21.890771 53.707171-45.367829 72.606656z" fill="#E77A33" p-id="8053"></path><path d="M19.216743 815.306579c11.693207 7.251601 21.165611 15.681587 22.661254 30.819305 0.951773 9.381759 8.792566 15.273685 15.047072 21.528191s11.285304 11.874497 10.378854 21.029643c-23.975606-19.262065-38.297518-44.869282-48.08718-73.377139z" fill="#E38944" p-id="8054"></path><path d="M380.663737 161.62006c22.933189-22.933189 52.392818-25.063346 82.305672-26.151086a490.208236 490.208236 0 0 1-82.305672 26.151086z" fill="#E28C47" p-id="8055"></path><path d="M1178.611796 816.666254c-22.887866 18.129003-48.08718 28.961082-78.045358 25.289959a397.342419 397.342419 0 0 1 78.045358-25.289959z" fill="#DE8C43" p-id="8056"></path><path d="M67.394568 888.683718c18.44626 13.098205 38.342841 24.564799 50.761208 44.506702-21.301578-9.834984-39.294614-23.431736-50.761208-44.506702z" fill="#E38944" p-id="8057"></path><path d="M44.959927 116.705456c-5.937248 16.859973-0.72516 39.974451-25.788507 46.138312a99.43758 99.43758 0 0 1 25.788507-46.138312z" fill="#E0823A" p-id="8058"></path><path d="M1251.127807 180.791481c20.485773-0.634515 41.832674-3.761768 54.115073 18.899485-17.857068-6.526441-38.116228-6.843699-54.115073-18.899485z" fill="#DD833E" p-id="8059"></path><path d="M345.176214 806.242078c-22.162706 1.676933-42.965737-1.223708-59.689742-17.857068a167.058761 167.058761 0 0 1 59.689742 17.857068z" fill="#D88A3C" p-id="8060"></path><path d="M213.242396 235.178489c9.064501-19.760613 19.534001-37.934938 45.730409-36.258006a297.406291 297.406291 0 0 0-45.730409 36.258006z" fill="#E48442" p-id="8061"></path><path d="M1034.440901 108.003534a44.914604 44.914604 0 0 1 39.521226 18.990131c-15.500297-1.45032-31.317852-2.266125-39.521226-18.990131z" fill="#E47E36" p-id="8062"></path><path d="M1468.675841 62.952962c-21.029643 1.858223-27.918664-17.131908-40.563644-27.601407 17.630455 3.127253 30.0035 14.004655 40.563644 27.601407z" fill="#E28340" p-id="8063"></path><path d="M67.485213 89.421306c1.767578 16.859973-4.532251 27.193504-22.661254 27.193505 4.940153-11.104014 9.789662-22.389318 22.661254-27.193505z" fill="#E0823A" p-id="8064"></path><path d="M163.61425 18.944808c-9.064501 16.406748-23.069156 22.978511-41.334126 21.709481 12.826269-9.064501 25.788507-17.811745 41.334126-21.709481z" fill="#DF8844" p-id="8065"></path><path d="M1428.157519 35.759458c-15.00175 2.35677-27.828019 0.679838-32.088335-17.086585a49.854758 49.854758 0 0 1 32.088335 17.086585z" fill="#E2863B" p-id="8066"></path><path d="M1065.71343 852.516357a35.442201 35.442201 0 0 1-31.725754 17.358521c6.209183-13.778042 18.26497-16.81465 31.725754-17.358521z" fill="#E18842" p-id="8067"></path><path d="M1496.095957 90.146466c-17.811745 0-19.624646-16.588038-27.465439-26.921569a49.446855 49.446855 0 0 1 27.465439 26.921569z" fill="#E28340" p-id="8068"></path><path d="M91.370174 63.723445c-3.308543 12.916915-10.016274 22.661254-23.884961 25.697861 3.444511-12.871592 13.959332-18.99013 23.884961-25.697861z" fill="#E0823A" p-id="8069"></path><path d="M117.430616 43.872187c-4.532251 12.101109-11.375949 20.984321-26.060442 19.488678a53.117978 53.117978 0 0 1 26.060442-19.488678z" fill="#E59254" p-id="8070"></path><path d="M1219.402052 171.726979c10.877402 2.130158 25.063346-7.614181 31.725755 9.064502a51.16911 51.16911 0 0 1-31.725755-9.064502z" fill="#DD833E" p-id="8071"></path><path d="M1359.901824 969.403103c7.251601-15.590942 20.984321-7.206279 32.043012-8.611276a46.183635 46.183635 0 0 1-32.043012 8.611276z" fill="#E08F4D" p-id="8072"></path><path d="M1191.120807 163.161025c9.789662 1.586288 23.069156-8.022084 28.1906 8.747244a41.606061 41.606061 0 0 1-28.1906-8.747244z" fill="#DD833E" p-id="8073"></path></svg>