<svg t="1749093592123" class="icon" viewBox="0 0 1621 1024" version="1.1" xmlns="http://www.w3.org/2000/svg" p-id="3838" width="200" height="200"><path d="M0 0h1585.536v1024H0z" fill="#E72D14" p-id="3839"></path><path d="M349.866667 169.642667l44.416 132.693333h141.909333l-114.56 80.64 42.752 132.693333-114.56-82.346666-114.56 82.346666 44.458667-132.693333-114.56-80.64h141.909333L349.866667 169.642667z m369.322666-70.528l-1.706666 47.018666 42.709333 16.768-46.165333 11.776-1.706667 45.354667-25.6-38.613333-44.501333 10.069333 29.056-35.285333-23.893334-38.613334 42.709334 18.474667 29.098666-36.949333z m159.018667 149.461333l-20.522667 40.32 32.469334 31.914667-46.165334-6.741334-20.48 40.32-6.869333-45.354666-46.165333-6.698667 41.045333-20.181333-6.826667-45.312 32.426667 31.914666 41.088-20.181333z m-47.914667 184.746667l15.402667 43.690666h46.165333l-37.589333 26.88 13.653333 43.648-37.632-26.88-37.589333 26.88 15.36-43.648-37.589333-26.88h46.165333l13.653333-43.690666z m-111.104 141.098666l-3.413333 45.354667 44.416 16.810667-46.165333 11.733333-3.413334 45.354667-23.893333-38.613334-46.208 11.733334 30.762667-35.242667-25.6-38.656 44.416 16.810667 29.098666-35.285334z" fill="#FBDC00" p-id="3840"></path></svg>