<?xml version="1.0" standalone="no"?><!DOCTYPE svg PUBLIC "-//W3C//DTD SVG 1.1//EN" "http://www.w3.org/Graphics/SVG/1.1/DTD/svg11.dtd"><svg class="icon" width="200px" height="188.41px" viewBox="0 0 1087 1024" version="1.1" xmlns="http://www.w3.org/2000/svg"><path d="M620.628222 813.168237l-1.187689-682.318844c0-19.987109-19.919241-32.211822-19.919241-32.211822L413.024428 20.496119c-12.950052 0-29.887345 7.800572-29.887345 20.750623v921.06554c0 6.701959 0.19512 5.196139 0.19512 19.355089 0 18.1674 26.281861 28.211855 38.090883 16.39435l183.37918-144.58841c0.012725-0.008483 15.825956-12.831283 15.825956-40.305074z" fill="#9F9FB5" /><path d="M430.195017 87.456327l189.292175 60.796952v-32.52147L430.195017 27.694362z" fill="#FFFFFF" opacity=".15" /><path d="M620.594288 794.411234l-190.399271 122.382867v74.362057l192.286848-155.345479z" fill="#6E6E96" opacity=".25" /><path d="M408.082793 1020.131527h-0.004242c-20.144054 0-41.709092-15.461166-41.709092-38.464156 0-8.144153-0.063626-10.947947-0.118769-13.234249-0.038176-1.734874-0.076351-3.198277-0.076351-6.12084V41.246742c0-23.295671 24.317932-37.717609 46.854331-37.717609h3.410364l191.95175 80.648324c2.867421 1.760325 28.012493 18.018939 28.012493 46.671936l1.187689 682.293393c0 34.315728-19.741088 51.571153-21.997697 53.429038l-183.018632 144.308454c-6.413521 5.976621-15.066683 9.251249-24.491844 9.251249z m-7.978725-978.146721v920.323234c0 2.540806 0.029692 3.809088 0.067868 5.31915 0.059384 2.426279 0.127252 5.399743 0.127253 14.040181 0 1.667006 3.847264 4.530185 7.779362 4.530185 1.026503 0 1.450677-0.220571 1.454919-0.224813l1.38281-1.234348 183.031357-144.312696c1.153755-1.090129 9.705116-9.722083 9.705116-27.257462l-1.187689-682.293393c0-8.424108-8.470768-15.32543-11.0752-17.246941L410.148524 37.687917c-4.598053 0.691405-8.763448 2.846212-10.044456 4.296889z" fill="#6E6E96" /><path d="M430.195017 976.178551a29.285017 29.285017 0 0 1-29.285017 29.276534l-339.475448 1.573688c-26.956298-3.079508-44.445019-19.202386-44.445019-49.683576V58.591243c0-8.165362 4.788932-41.628499 41.497005-41.628499l342.423462 1.272524a29.289259 29.289259 0 0 1 29.285017 29.285017v928.658266z" fill="#9F9FB5" /><path d="M380.685353 267.429386H68.738839V210.322754l311.946514 0.237538zM382.029987 169.462011H67.398447V110.090286l314.63154 0.237538z" fill="#6E6E96" /><path d="M119.13927 388.628806m-34.735662 0a34.735661 34.735661 0 1 0 69.471323 0 34.735661 34.735661 0 1 0-69.471323 0Z" fill="#7ECF9F" /><path d="M119.13927 440.331453c-28.508778 0-51.702647-23.193869-51.702647-51.702647s23.193869-51.702647 51.702647-51.702647 51.698405 23.193869 51.698405 51.702647-23.189628 51.702647-51.698405 51.702647z m0-69.471323c-9.798434 0-17.768676 7.970241-17.768676 17.768676s7.970241 17.768676 17.768676 17.768675S136.903704 398.42724 136.903704 388.628806s-7.966-17.768676-17.764434-17.768676z" fill="#6E6E96" /><path d="M339.307117 543.524659h33.933971v367.38614h-33.933971zM273.462487 544.445118h33.933972v367.377657h-33.933972zM207.6221 545.369819h33.933971v367.381898h-33.933971zM141.773229 546.277553h33.933971v367.386139h-33.933971zM75.928599 547.198012h33.933971v367.381898h-33.933971z" fill="#6E6E96" opacity=".48" /><path d="M400.91 941.828889l-339.475448 1.573688c-26.956298-3.079508-44.445019-19.202386-44.445019-49.683576v50.900957c0 30.48119 17.480237 46.604068 44.445019 49.683575l339.475448-1.573688a29.280775 29.280775 0 0 0 29.285017-29.276533v-50.900957a29.276534 29.276534 0 0 1-29.285017 29.276534z" fill="#6E6E96" opacity=".25" /><path d="M28.285303 20.513086h401.909714v54.218002H28.285303z" fill="#FFFFFF" opacity=".15" /><path d="M60.505609 1024l-0.99681-0.110285c-37.246775-4.254472-59.486252-29.128073-59.486252-66.544518V58.591243C0.022547 35.036825 15.593998-0.004242 58.486538-0.004242l342.482846 1.272524c25.441995 0 46.192618 20.750623 46.192619 46.252003v928.658266c0 25.501379-20.750623 46.243519-46.252003 46.243519l-340.404391 1.57793z m-2.078456-990.07027c-23.77923 0-24.470635 22.137674-24.470635 24.661513v898.758196c0 19.787747 9.051887 30.205476 28.462119 32.712348l338.41077-1.569446a12.343482 12.343482 0 0 0 12.398625-12.309548V47.520285a12.334999 12.334999 0 0 0-12.318032-12.318032l-342.482847-1.272523z" fill="#6E6E96" /><path d="M579.754754 959.381235h-15.236353s6.89708 1.497336 15.236353 0z m230.360764-42.137509v-51.681438H608.674981v49.666609c0 32.551162-16.15257 41.866037-28.911744 44.152338h28.911744v13.802643h201.440537v-13.802643h44.152338c-40.398393 0-43.919042-33.505555-44.152338-42.137509z" fill="#FFFFFF" /><path d="M827.082503 990.150864H591.707995v-13.802643h-10.574674a60.996313 60.996313 0 0 1-9.030678 0.661712c-6.027522 0-10.366828-0.8738-11.177002-1.047711l3.597001-33.547972h13.607523c4.721064-1.056195 13.57783-4.805899 13.57783-27.185353v-66.633594h235.374508v68.39816c0.53446 16.869425 9.679665 25.420786 27.185353 25.420787v33.933971h-27.185353v13.802643z m-201.444778-33.933972h167.506565v-13.802642h5.276733c-3.397639-7.99145-5.047678-16.555536-5.268249-24.708173l-0.008484-0.462351v-34.714452h-167.506565v32.699623c0 10.867354-1.535512 19.817439-4.067835 27.185353h4.067835v13.802642z" fill="#6E6E96" /><path d="M564.518401 959.381235h289.749455v44.996446H564.518401z" fill="#FFFFFF" /><path d="M854.267856 1021.344667H564.518401a16.966986 16.966986 0 0 1-16.966986-16.966986v-44.996446a16.966986 16.966986 0 0 1 16.966986-16.966985h289.749455a16.966986 16.966986 0 0 1 16.966986 16.966985v44.996446a16.966986 16.966986 0 0 1-16.966986 16.966986z m-272.78247-33.933972h255.815484v-11.062474H581.485386v11.062474z" fill="#6E6E96" /><path d="M608.666497 865.562288h201.440537v37.776994h-201.440537z" fill="#6E6E96" opacity=".15" /><path d="M356.176542 791.056013V346.775494c0-30.353937 24.835425-55.185121 55.189363-55.185121h596.054447c30.358179 0 55.189362 24.835425 55.189362 55.185121v444.280519" fill="#A8A8BF" /><path d="M1064.726346 791.056013h-4.241747V346.775494c0-29.259567-23.804681-53.064248-53.068489-53.064248H411.365905c-29.259567 0-53.068489 23.804681-53.068489 53.064248v444.280519h-4.241747V346.775494c0-31.601011 25.709225-57.305994 57.310236-57.305994h596.054447c31.601011 0 57.310236 25.709225 57.310235 57.305994v444.280519z" fill="#6E6E96" /><path d="M356.176542 791.056013V346.775494c0-30.353937 24.835425-55.185121 55.189363-55.185121h596.054447c30.358179 0 55.189362 24.835425 55.189362 55.185121v444.280519" fill="#A8A8BF" /><path d="M1079.572458 791.056013h-33.933971V346.775494c0-21.072996-17.145139-38.218135-38.222377-38.218135H411.365905c-21.077238 0-38.222377 17.145139-38.222377 38.218135v444.280519h-33.933971V346.775494c0-39.78334 32.368767-72.152106 72.156348-72.152106h596.054447c39.787581 0 72.156348 32.368767 72.156348 72.152106v444.280519z" fill="#6E6E96" /><path d="M1007.895427 686.772677a13.064579 13.064579 0 0 1-13.022161 13.01792H424.409275a13.064579 13.064579 0 0 1-13.022161-13.01792V358.614208a13.064579 13.064579 0 0 1 13.022161-13.026403h570.451266a13.056095 13.056095 0 0 1 13.017919 13.026403v328.145744h0.012726v0.012725z" fill="#A1C4ED" /><path d="M1062.605472 746.899433v63.465009c0 30.358179-24.831183 55.193604-55.189362 55.193604H411.365905c-30.349696 0.004242-55.189362-24.831183-55.189363-55.193604v-63.465009" fill="#FFFFFF" /><path d="M411.357421 867.67892c-15.244837 0-29.611632-5.976621-40.46626-16.83125-10.858871-10.858871-16.835491-25.234149-16.835492-40.483228v-63.465009h4.241747v63.465009c0 14.116532 5.535479 27.427132 15.592659 37.484313 10.052939 10.052939 23.359297 15.588418 37.467346 15.588418h596.062931c29.259567 0 53.068489-23.804681 53.068489-53.072731v-63.465009h4.241746v63.465009c0 31.601011-25.709225 57.314477-57.310235 57.314478H411.357421z" fill="#6E6E96" /><path d="M411.35318 882.525032c-19.206628 0-37.30616-7.520616-50.964583-21.17904-13.658423-13.662665-21.183282-31.762197-21.183282-50.98155v-63.465009h33.933971v63.465009c0 10.154741 3.991483 19.732604 11.240628 26.985991a37.933938 37.933938 0 0 0 26.977507 11.236386h596.054447c21.077238 0 38.222377-17.149381 38.222377-38.226619v-63.465009h33.933971v63.465009c0 39.787581-32.368767 72.16059-72.156348 72.16059H411.365905l-0.012725 0.004242z" fill="#6E6E96" /><path d="M356.176542 729.932447h706.42893v33.933971H356.176542z" fill="#6E6E96" /><path d="M373.283506 827.437472h675.455697v33.933971H373.283506z" fill="#6E6E96" opacity=".15" /><path d="M411.387114 355.712854h585.35252v30.345453H411.387114z" fill="#6E6E96" opacity=".15" /><path d="M797.559948 959.381235h56.707908v44.996446H797.559948z" fill="#6E6E96" opacity=".15" /><path d="M470.703695 699.790597l313.73229-313.73229h99.837985l-313.732289 313.73229z" fill="#FFFFFF" opacity=".11" /><path d="M996.739634 386.058307l-313.732289 313.73229h156.728288l168.151311-168.151311z" fill="#FFFFFF" opacity=".2" /><path d="M994.869024 716.757583H424.409275c-16.534327 0-29.989147-13.450578-29.989147-29.984906V358.614208c0-16.538569 13.45482-29.993389 29.989147-29.993389h570.455507c16.534327 0 29.984905 13.45482 29.984906 29.993389l0.012725 328.145744a30.023081 30.023081 0 0 1-29.993389 29.997631z m-566.514925-33.933972h562.565859V362.554791H428.354099v320.26882z" fill="#6E6E96" /></svg>