<?xml version="1.0" standalone="no"?><!DOCTYPE svg PUBLIC "-//W3C//DTD SVG 1.1//EN" "http://www.w3.org/Graphics/SVG/1.1/DTD/svg11.dtd"><svg class="icon" width="200px" height="200.00px" viewBox="0 0 1024 1024" version="1.1" xmlns="http://www.w3.org/2000/svg"><path d="M511.705088 992.976896c268.06272 0 485.376-217.31328 485.376-485.376s-217.321472-485.376-485.376-485.376c-268.066816 0-485.384192 217.31328-485.384192 485.376s217.31328 485.376 485.384192 485.376z m0-603.283456c65.114112 0 117.90336 52.79744 117.90336 117.907456 0 65.118208-52.789248 117.90336-117.90336 117.90336-65.118208 0-117.907456-52.793344-117.907456-117.90336 0-65.118208 52.785152-117.907456 117.907456-117.907456z" fill="#CCE3EB" /><path d="M26.320896 523.984896c0 268.06272 217.317376 485.376 485.384192 485.376 268.06272 0 485.376-217.31328 485.376-485.376s-217.321472-485.376-485.376-485.376c-18.30912 0-36.368384 1.048576-54.153216 3.022848 9.785344-0.622592 19.636224-0.974848 29.577216-0.974848 253.35808 0 458.752 205.39392 458.752 458.752s-205.398016 458.752-458.752 458.752c-253.362176 0-458.760192-205.39392-458.760192-458.752 0-9.940992 0.352256-19.791872 0.974848-29.577216a490.594304 490.594304 0 0 0-3.022848 54.153216z m367.476736 0c0-65.118208 52.789248-117.907456 117.907456-117.907456 18.362368 0 35.745792 4.202496 51.24096 11.689984a111.0016 111.0016 0 0 0-75.81696-29.7984c-61.546496 0-111.439872 49.893376-111.439872 111.439872 0 29.290496 11.321344 55.926784 29.7984 75.81696a117.415936 117.415936 0 0 1-11.689984-51.24096z" fill="#FFFFFF" opacity=".52" /><path d="M508.162048 880.136192a16.384 16.384 0 0 1 0-32.768c188.063744 0 341.061632-152.997888 341.061632-341.057536 0-188.063744-153.001984-341.065728-341.061632-341.065728a340.82816 340.82816 0 0 0-224.280576 84.107264 16.384 16.384 0 0 1-21.557248-24.6784 373.59616 373.59616 0 0 1 245.837824-92.196864c206.1312 0 373.829632 167.702528 373.829632 373.833728s-167.698432 373.825536-373.829632 373.825536z" fill="#6E6E96" opacity=".21" /><path d="M150.728704 522.682368a16.384 16.384 0 0 1-16.384-16.384c0-54.628352 11.517952-107.27424 34.226176-156.475392a16.384 16.384 0 0 1 29.753344 13.729792c-20.709376 44.867584-31.21152 92.893184-31.21152 142.7456a16.384 16.384 0 0 1-16.384 16.384z" fill="#6E6E96" opacity=".25" /><path d="M511.705088 1021.648896c-276.676608 0-501.768192-225.087488-501.768192-501.76S235.02848 18.128896 511.705088 18.128896c276.672512 0 501.76 225.087488 501.76 501.76s-225.083392 501.76-501.76 501.76z m0-970.752c-258.609152 0-469.000192 210.386944-469.000192 468.992s210.395136 468.992 469.000192 468.992c258.605056 0 468.992-210.386944 468.992-468.992s-210.386944-468.992-468.992-468.992z m0 603.27936c-74.047488 0-134.291456-60.239872-134.291456-134.28736S437.6576 385.59744 511.705088 385.59744c74.047488 0 134.28736 60.243968 134.28736 134.291456s-60.239872 134.28736-134.28736 134.28736z m0-235.810816c-55.980032 0-101.523456 45.543424-101.523456 101.523456s45.543424 101.51936 101.523456 101.51936c55.980032 0 101.51936-45.539328 101.51936-101.51936s-45.539328-101.523456-101.51936-101.523456z" fill="#6E6E96" /><path d="M512.684032 720.211968c-110.669824 0-200.704-90.034176-200.704-200.704s90.034176-200.704 200.704-200.704 200.704 90.034176 200.704 200.704-90.034176 200.704-200.704 200.704z m0-368.64c-92.598272 0-167.936 75.337728-167.936 167.936s75.337728 167.936 167.936 167.936 167.936-75.337728 167.936-167.936-75.337728-167.936-167.936-167.936z" fill="#6E6E96" opacity=".49" /></svg>