<?xml version="1.0" standalone="no"?><!DOCTYPE svg PUBLIC "-//W3C//DTD SVG 1.1//EN" "http://www.w3.org/Graphics/SVG/1.1/DTD/svg11.dtd">
<svg t="1744137460323" class="icon" viewBox="0 0 1024 1024" version="1.1" xmlns="http://www.w3.org/2000/svg" p-id="7957"
     width="200" height="200"><path d="M512 64v64H448v128H384v64H320v64H256v64H192v64H128v64H64v128h64v64h64v64h64v64h64v64h128v-64h64v-128h64v-64h64v-64h64V576h128V512h64V384h-64V320h-64V256h-64V192h-64V128H576V64z" fill="#38342A" p-id="7958"></path><path d="M512 128v64h64v64h64v64h64v64h64V320h-64V256h-64V192H576V128zM448 256v128H320v64H256v64H192v128h64v64h64v64h128v-128H384V576h128v64h64V512H512V448h128V384H576V320H512V256z" fill="#DBD0B4" p-id="7959"></path><path d="M512 256v64h64v64h64v64h64V384h-64V320H576V256z" fill="#38342A" p-id="7960"></path><path d="M576 256v64h64V256z m64 64v64h64V320z m64 64v64h64V384z m0 64h-64v64H576v128h64V576h64z m-128 192H448v128h64v-64h64z m-128 128H384v64h64z" fill="#BCB29C" p-id="7961"></path><path d="M768 448v64h64V448z" fill="#807A6D" p-id="7962"></path><path d="M128 576v64h64v64h64v64h64v64h64v-64H320v-64H256v-64H192V576z" fill="#AEA694" p-id="7963"></path><path d="M128 640v64h64v-64z m64 64v64h64v-64z m64 64v64h64v-64z m64 64v64h64v-64z" fill="#9A927E" p-id="7964"></path><path d="M512 192v64h64V192zM384 320v64h64V320z m64 64v64h64V384z m64 64v64h128V448zM320 512v64h64V512z m64 64v64h128V576z" fill="#C6BCA5" p-id="7965"></path></svg>