<?xml version="1.0" standalone="no"?><!DOCTYPE svg PUBLIC "-//W3C//DTD SVG 1.1//EN" "http://www.w3.org/Graphics/SVG/1.1/DTD/svg11.dtd"><svg class="icon" width="200px" height="195.05px" viewBox="0 0 1050 1024" version="1.1" xmlns="http://www.w3.org/2000/svg"><path d="M1027.280155 893.398387c0 45.399057-37.140785 82.539842-82.539842 82.539842H118.986006c-45.399057 0-82.539842-37.140785-82.539842-82.539842V501.327706c0-45.394769 37.145073-82.539842 82.539842-82.539842h825.754307c45.399057 0 82.539842 37.145073 82.539842 82.539842v392.070681z" fill="#BEBECF" /><path d="M944.740313 978.082121H118.986006c-46.693968 0-84.683734-37.985478-84.683734-84.683734V501.327706c0-46.693968 37.989766-84.683734 84.683734-84.683734h825.754307c46.698256 0 84.683734 37.989766 84.683734 84.683734v392.070681c0 46.698256-37.989766 84.683734-84.683734 84.683734zM118.986006 420.931756C74.654607 420.931756 38.590056 456.996307 38.590056 501.327706v392.070681c0 44.331399 36.064551 80.39595 80.39595 80.39595h825.754307c44.331399 0 80.39595-36.064551 80.39595-80.39595V501.327706c0-44.331399-36.064551-80.39595-80.39595-80.39595H118.986006z" fill="#6E6E96" /><path d="M936.164745 414.50008H110.410438c-45.394769 0-82.539842 37.145073-82.539842 82.539842v46.145131c0-45.399057 37.145073-82.539842 82.539842-82.539842h825.754307c45.399057 0 82.539842 37.140785 82.539842 82.539842V497.039922c0-45.394769-37.145073-82.539842-82.539842-82.539842z" fill="#FFFFFF" opacity=".28" /><path d="M108.93544 492.829318h144.879934v69.474964H108.93544zM299.969081 492.829318h80.490281v69.474964H299.969081zM426.613069 492.829318h80.490282v69.474964H426.613069zM553.244194 492.829318h80.485994v69.474964h-80.485994zM679.883895 492.829318h80.485993v69.474964h-80.485993zM806.527883 492.829318h148.910451v69.474964h-148.910451z" fill="#6E6E96" opacity=".72" /><path d="M108.93544 608.003484h80.490282v69.470676H108.93544zM236.604209 608.003484h80.490281v69.470676H236.604209zM364.26869 608.003484h80.490281v69.470676H364.26869zM491.937459 608.003484h80.490281v69.470676H491.937459zM619.60194 608.003484h80.485993v69.470676h-80.485993zM747.274996 608.003484h80.494569v69.470676H747.274996zM874.943765 608.003484h80.485993v69.470676h-80.485993z" fill="#6E6E96" opacity=".72" /><path d="M107.593364 721.089499h146.230586v69.474964H107.593364zM299.969081 721.089499h80.490281v69.474964H299.969081zM426.613069 721.089499h80.490282v69.474964H426.613069zM553.244194 721.089499h80.485994v69.474964h-80.485994zM679.883895 721.089499h80.485993v69.474964h-80.485993zM806.527883 721.089499h150.243952v69.474964h-150.243952z" fill="#6E6E96" opacity=".72" /><path d="M108.93544 826.29028h80.490282v69.466388H108.93544zM236.604209 826.29028h80.490281v69.466388H236.604209zM364.26869 826.29028h338.953613v69.466388H364.26869zM747.274996 826.29028h80.494569v69.466388H747.274996zM874.943765 826.29028h80.485993v69.466388h-80.485993z" fill="#6E6E96" opacity=".72" /><path d="M268.543912 418.787864h-34.302272V332.813507c-0.587426-7.863796-2.18677-49.18517 26.129756-71.931865 18.977732-15.243072 45.480525-17.601353 78.762304-7.010527l1.792294 0.570276 1.62507 0.943312c0.591714 0.343023 59.591622 34.610992 102.606671 57.464881 31.043556 16.490817 79.40976 28.475174 113.549096 7.949552 27.060205-16.263565 40.776826-50.638729 40.776826-102.173605V17.151136h34.302272v201.474395c0 44.279945-9.956234 103.052601-57.404852 131.570652-30.413252 18.274535-85.073922 26.013986-147.319683-7.057693-39.481915-20.975839-92.045859-51.320487-102.06641-57.121858-14.68566-4.459295-33.813465-7.495046-45.146078 1.607919-13.146346 10.560812-14.089658 35.159829-13.382174 42.942157l0.072892 1.552178V418.787864z" fill="#6E6E96" /><path d="M944.740313 993.089365H118.986006c-54.969391 0-99.690978-44.721587-99.690978-99.690978V501.327706c0-54.969391 44.721587-99.690978 99.690978-99.690978h825.754307c54.969391 0 99.690978 44.721587 99.690978 99.690978v392.070681c0 54.969391-44.721587 99.690978-99.690978 99.690978zM118.986006 435.939c-36.055976 0-65.388706 29.33273-65.388706 65.388706v392.070681c0 36.055976 29.33273 65.388706 65.388706 65.388706h825.754307c36.055976 0 65.388706-29.33273 65.388706-65.388706V501.327706c0-36.055976-29.33273-65.388706-65.388706-65.388706H118.986006z" fill="#6E6E96" /><path d="M946.888492 928.772605H121.138474c-45.399057 0-82.539842-37.140785-82.539842-82.539842v51.453408c0 45.399057 37.140785 82.539842 82.539842 82.539842h825.754306c45.399057 0 82.539842-37.140785 82.539842-82.539842v-51.453408c-0.004288 45.399057-37.145073 82.539842-82.54413 82.539842z" fill="#6E6E96" opacity=".25" /></svg>