<?xml version="1.0" standalone="no"?><!DOCTYPE svg PUBLIC "-//W3C//DTD SVG 1.1//EN" "http://www.w3.org/Graphics/SVG/1.1/DTD/svg11.dtd"><svg class="icon" width="200px" height="197.49px" viewBox="0 0 1037 1024" version="1.1" xmlns="http://www.w3.org/2000/svg"><path d="M615.289053 811.076263l-1.168494-668.902555c0-19.594107-19.523415-31.578448-19.523415-31.578448L411.767328 33.990286c-12.691259 0-29.299677 7.647191-29.299677 20.342609v902.950668c0 6.574338 0.191284 5.093969 0.191284 18.978672 0 17.810178 25.769245 27.652973 37.346068 16.071992l179.769277-141.745399c0.008317-0.004158 15.514773-12.583142 15.514773-39.512565z" fill="#9F9FB5" /><path d="M428.600296 99.629713l185.566005 59.605672v-31.882007L428.600296 41.042834z" fill="#FFFFFF" opacity=".15" /><path d="M615.255787 792.688076l-186.655491 119.976479v72.899891l188.505953-152.290954z" fill="#6E6E96" opacity=".25" /><path d="M406.852168 1013.974238c-5.372578 0-10.919806-1.085327-16.3007-3.314199-15.128048-6.266621-24.5259-19.444407-24.525901-34.393645 0-7.984016-0.062375-10.736839-0.116433-12.978185-0.037425-1.696603-0.07485-3.13539-0.07485-6.000487V54.332895c0-22.837614 23.843932-36.975976 45.933044-36.975976h3.343307l188.173286 79.058395c2.811039 1.725712 27.465848 17.664636 27.465848 45.754236l0.561376 335.836005-33.266735 0.058217-0.561376-335.865114c0-8.258467-8.308367-15.024089-10.861589-16.907818L408.947972 50.844046c-4.503484 0.681968-8.591134 2.794406-9.846954 4.216559v902.227117c0 2.495005 0.029108 3.738349 0.066534 5.218719 0.054058 2.374413 0.12475 5.289411 0.12475 13.764111 0 0.985527 1.376411 2.245505 2.657181 2.998165 2.931631 1.725712 5.771779 1.567695 6.408004 1.22671l1.351462-1.210077 179.474034-141.512532c0.856618-0.798402 9.468544-9.264786 9.468545-26.692396h33.266735c0 28.206033-13.76827 44.768708-19.352923 50.324253l-0.415835 0.623751-2.075012 1.634229-179.141368 141.250556c-6.399688 5.946429-14.986664 9.061027-24.080957 9.061027z" fill="#6E6E96" /><path d="M428.600296 970.881341a28.709192 28.709192 0 0 1-28.709193 28.700876l-332.800415 1.546903c-26.430421-3.018956-43.571106-18.828972-43.571106-48.710817V71.336355c0-8.004808 4.694768-40.809967 40.681058-40.809967l335.690463 1.247502a28.713351 28.713351 0 0 1 28.709193 28.709192v910.398259z" fill="#9F9FB5" /><path d="M380.064129 276.063999H74.251352V220.084401l305.812777 0.228709zM381.382324 180.027094H72.937316V121.822783l308.445008 0.228709z" fill="#6E6E96" /><path d="M123.66077 394.88446m-34.052661 0a34.052662 34.052662 0 1 0 68.105323 0 34.052662 34.052662 0 1 0-68.105323 0Z" fill="#7ECF9F" /><path d="M123.66077 445.570489c-27.948216 0-50.686029-22.737813-50.686029-50.686029s22.737813-50.686029 50.686029-50.686029 50.686029 22.737813 50.686029 50.686029-22.737813 50.686029-50.686029 50.686029z m0-68.105323c-9.60577 0-17.419294 7.813524-17.419294 17.419294s7.813524 17.419294 17.419294 17.419294 17.419294-7.813524 17.419294-17.419294-7.817683-17.419294-17.419294-17.419294z" fill="#6E6E96" /><path d="M210.403781 548.535192h33.266735v360.162305h-33.266735zM145.849682 549.437552h33.266735v360.158147h-33.266735zM81.299742 550.335754h33.266735v360.158147h-33.266735z" fill="#6E6E96" opacity=".48" /><path d="M399.891103 937.207089l-332.800415 1.546903c-26.430421-3.018956-43.571106-18.828972-43.571106-48.710817v49.900103c0 29.881845 17.136527 45.69186 43.571106 48.710816l332.800415-1.546903a28.700876 28.700876 0 0 0 28.709193-28.700876v-49.900102a28.700876 28.700876 0 0 1-28.709193 28.700876z" fill="#6E6E96" opacity=".25" /><path d="M34.593246 34.00692h394.00705V87.158845H34.593246z" fill="#FFFFFF" opacity=".15" /><path d="M66.184169 1017.766646l-0.97721-0.108117C28.692559 1013.487712 6.890372 989.103195 6.890372 952.422462V71.336355c0-23.091272 15.261115-57.443334 57.314426-57.443335l335.752839 1.247503c24.941734 0 45.280185 20.342608 45.280184 45.342559v369.048682h-33.266734V60.483082a12.092458 12.092458 0 0 0-12.075825-12.075824l-335.752839-1.247503c-23.311664 0-23.985316 21.702386-23.985316 24.1766v881.081948c0 19.402823 8.873902 29.615711 27.898316 32.073291l331.76083-1.542745a12.100775 12.100775 0 0 0 12.150675-12.067508h33.266735c0 24.999951-20.342608 45.334243-45.34256 45.334243l-333.706934 1.551062z" fill="#6E6E96" /><path d="M1014.132255 938.941117c0 33.092085-27.079122 60.171207-60.175365 60.171207H351.982847c-33.096243 0-60.171207-27.079122-60.171207-60.171207v-285.823628c0-33.087926 27.079122-60.171207 60.171207-60.171206h601.974043c33.096243 0 60.175365 27.083281 60.175365 60.171206v285.823628z" fill="#F2F2F2" /><path d="M953.95689 1001.191495H351.982847c-34.322954 0-62.250378-27.927424-62.250378-62.250378v-285.823628c0-34.322954 27.927424-62.250378 62.250378-62.250377h601.974043c34.327112 0 62.254536 27.927424 62.254536 62.250377v285.823628c0 34.322954-27.927424 62.250378-62.254536 62.250378zM351.982847 595.025454c-32.031707 0-58.092036 26.060328-58.092036 58.092035v285.823628c0 32.031707 26.060328 58.092036 58.092036 58.092036h601.974043c32.031707 0 58.096194-26.060328 58.096194-58.092036v-285.823628c0-32.031707-26.064487-58.092036-58.096194-58.092035H351.982847z" fill="#6E6E96" /><path d="M947.702744 589.823368H345.732859c-33.092085 0-60.171207 27.079122-60.171207 60.175365v33.632669c0-33.087926 27.079122-60.175365 60.171207-60.175365h601.969885c33.10456 0 60.179523 27.087439 60.179523 60.175365v-33.632669c-0.004158-33.096243-27.083281-60.175365-60.179523-60.175365z" fill="#FFFFFF" opacity=".28" /><path d="M344.655848 646.92156h105.617725v50.648604H344.655848zM483.922876 646.92156h58.674203v50.648604h-58.674203zM576.242223 646.92156h58.674204v50.648604h-58.674204zM668.549096 646.92156h58.674204v50.648604h-58.674204zM760.880919 646.92156h58.674203v50.648604h-58.674203zM853.208583 646.92156h108.549356v50.648604H853.208583z" fill="#6E6E96" opacity=".72" /><path d="M344.655848 730.890957h58.678362v50.640287H344.655848zM437.727856 730.890957h58.674204v50.640287h-58.674204zM530.791547 730.890957h58.678362v50.640287h-58.678362zM623.863554 730.890957h58.678362v50.640287h-58.678362zM716.931404 730.890957h58.678362v50.640287h-58.678362zM810.007569 730.890957h58.678362v50.640287h-58.678362zM903.079577 730.890957h58.678362v50.640287h-58.678362z" fill="#6E6E96" opacity=".72" /><path d="M343.67448 813.325926h106.603252v50.648604H343.67448zM483.922876 813.325926h58.674203v50.648604h-58.674203zM576.242223 813.325926h58.674204v50.648604h-58.674204zM668.549096 813.325926h58.674204v50.648604h-58.674204zM760.880919 813.325926h58.674203v50.648604h-58.674203zM853.208583 813.325926h109.522408v50.648604H853.208583z" fill="#6E6E96" opacity=".72" /><path d="M344.655848 890.018225h58.678362v50.640287H344.655848zM437.727856 890.018225h58.674204v50.640287h-58.674204zM530.791547 890.018225h247.105307v50.640287h-247.105307zM810.007569 890.018225h58.678362v50.640287h-58.678362zM903.079577 890.018225h58.678362v50.640287h-58.678362z" fill="#6E6E96" opacity=".72" /><path d="M465.139646 592.946283h-33.266735v-62.533145c-0.461576-6.54523-1.434628-38.111203 20.592109-55.796631 14.982506-12.034241 35.595406-13.988662 61.256534-5.825837l1.738186 0.553059 1.576012 0.918994c0.432468 0.249501 43.375664 25.191235 74.654711 41.80381 23.390673 12.425125 56.80295 19.074314 78.725729 5.909004 18.396504-11.061189 27.723665-34.925913 27.723665-70.94547V300.153274h33.266735v146.876793c0 60.416549-23.848091 87.429138-43.853874 99.455062-35.283531 21.207543-80.713416 11.302373-111.468512-5.044069-28.326625-15.040723-65.85566-36.68905-74.118285-41.466985-9.634878-2.877573-21.835453-4.852785-28.61355 0.532268-8.058867 6.403846-8.686776 22.650488-8.275101 27.835941l0.062376 1.422152v63.181847z" fill="#6E6E96" /><path d="M953.95689 1015.745691H351.982847c-42.352712 0-76.804574-34.451862-76.804574-76.804574v-285.823628c0-42.352712 34.456021-76.804574 76.804574-76.804574h601.974043c42.352712 0 76.808733 34.451862 76.808732 76.804574v285.823628c0 42.348554-34.456021 76.804574-76.808732 76.804574zM351.982847 609.57965c-24.006108 0-43.537839 19.527573-43.537839 43.537839v285.823628c0 24.006108 19.531732 43.537839 43.537839 43.53784h601.974043c24.006108 0 43.541998-19.527573 43.541997-43.53784v-285.823628c0-24.006108-19.531732-43.537839-43.541997-43.537839H351.982847z" fill="#6E6E96" /><path d="M955.528743 964.726995H353.550542c-33.096243 0-60.171207-27.083281-60.171207-60.171207v37.512402c0 33.096243 27.074964 60.171207 60.171207 60.171207h601.978201c33.096243 0 60.171207-27.074964 60.171207-60.171207v-37.512402c0 33.087926-27.074964 60.171207-60.171207 60.171207z" fill="#6E6E96" opacity=".25" /></svg>