<?xml version="1.0" standalone="no"?><!DOCTYPE svg PUBLIC "-//W3C//DTD SVG 1.1//EN" "http://www.w3.org/Graphics/SVG/1.1/DTD/svg11.dtd"><svg class="icon" width="200px" height="200.00px" viewBox="0 0 1024 1024" version="1.1" xmlns="http://www.w3.org/2000/svg"><path d="M804.76598 806.917921l-1.168494-668.902555c0-19.594107-19.523415-31.578448-19.523416-31.578448L601.244254 29.831945c-12.695418 0-29.303835 7.647191-29.303835 20.342608v902.950668c0 6.574338 0.195442 5.093969 0.195442 18.978673 0 17.810178 25.765086 27.652973 37.34191 16.071991l179.773435-141.745399c0.012475-0.004158 15.514773-12.583142 15.514774-39.512565z" fill="#9F9FB5" /><path d="M618.077222 95.471371l185.570164 59.605672v-31.882007L618.077222 36.884492z" fill="#FFFFFF" opacity=".15" /><path d="M804.732713 788.529734l-186.655491 119.976479v72.899891l188.505953-152.290954z" fill="#6E6E96" opacity=".25" /><path d="M596.395627 1009.815896c-19.747965 0-40.893134-15.157156-40.893134-37.707844 0-7.979858-0.066533-10.728522-0.116433-12.969868a192.834787 192.834787 0 0 1-0.079009-6.008804V50.174553c0-22.841772 23.843932-36.975976 45.937203-36.975976h3.343307l188.185761 79.062554c2.811039 1.725712 27.457531 17.664636 27.457531 45.754235l1.168494 668.873447c0 33.640986-19.352923 50.561279-21.565161 52.378474l-179.419976 141.470949c-6.291571 5.859104-14.774589 9.07766-24.018583 9.07766zM588.577945 50.898104v902.227117c0 2.490847 0.029108 3.730033 0.066533 5.210403 0.058217 2.374413 0.128909 5.293569 0.128909 13.772428 0 1.634228 3.767458 4.441109 7.626399 4.441109 1.010477 0 1.43047-0.220392 1.434628-0.220392l1.351461-1.210078 179.428293-141.475106c1.139386-1.072852 9.518445-9.539236 9.518444-26.725664l-1.168494-668.873446c0-8.20025-8.229359-14.953397-10.894856-16.924452l-177.640206-74.434319c-4.511801 0.67781-8.599451 2.790247-9.851111 4.2124z" fill="#6E6E96" /><path d="M618.077222 966.722999a28.709192 28.709192 0 0 1-28.709193 28.700876l-332.800415 1.546903C230.133034 993.951822 212.996508 978.141806 212.996508 948.259961V67.178013c0-8.004808 4.694768-40.809967 40.681058-40.809967l335.690463 1.247502a28.713351 28.713351 0 0 1 28.709193 28.709193v910.398258z" fill="#9F9FB5" /><path d="M569.541056 271.905658H263.728278V215.926059l305.812778 0.228709zM570.85925 175.868752H262.414242V117.664441l308.445008 0.228709z" fill="#6E6E96" /><path d="M313.137696 390.726118m-34.052661 0a34.052662 34.052662 0 1 0 68.105323 0 34.052662 34.052662 0 1 0-68.105323 0Z" fill="#7ECF9F" /><path d="M313.137696 441.412147c-27.948216 0-50.686029-22.737813-50.686029-50.686029s22.737813-50.686029 50.686029-50.686029S363.819567 362.777902 363.819567 390.726118s-22.733655 50.686029-50.681871 50.686029z m0-68.105323c-9.60577 0-17.419294 7.813524-17.419294 17.419294s7.813524 17.419294 17.419294 17.419294 17.415136-7.813524 17.415136-17.419294-7.809366-17.419294-17.415136-17.419294z" fill="#6E6E96" /><path d="M528.980589 542.576288h33.266735v360.158147h-33.266735zM464.42649 543.470331h33.266735v360.158147h-33.266735zM399.880708 544.37685h33.266734v360.162305h-33.266734zM335.326609 545.27921h33.266734v360.158147h-33.266734zM270.776668 546.177412h33.266735v360.158147h-33.266735z" fill="#6E6E96" opacity=".48" /><path d="M589.368029 933.048747l-332.800415 1.546903C230.137193 931.576694 212.996508 915.766678 212.996508 885.884833v49.900103c0 29.881845 17.136527 45.69186 43.571106 48.710816l332.800415-1.546903a28.700876 28.700876 0 0 0 28.709193-28.700875v-49.900103a28.700876 28.700876 0 0 1-28.709193 28.700876z" fill="#6E6E96" opacity=".25" /><path d="M224.070172 29.848578h394.00705V83.000504H224.070172z" fill="#FFFFFF" opacity=".15" /><path d="M255.661095 1013.608304l-0.97721-0.108117C218.165327 1009.32937 196.36314 984.940695 196.36314 948.259961V67.178013c0-23.091272 15.265273-57.443334 57.314426-57.443335l335.74868 1.247503c24.941734 0 45.284343 20.342608 45.284343 45.34256v910.398258c0 24.999951-20.342608 45.334243-45.34256 45.334243l-333.706934 1.551062z m-2.041746-970.606891c-23.311664 0-23.989474 21.702386-23.989474 24.1766v881.081948c0 19.402823 8.873902 29.615711 27.898316 32.073291l331.76083-1.542745a12.100775 12.100775 0 0 0 12.154833-12.067508V56.324741a12.092458 12.092458 0 0 0-12.075825-12.075825l-335.74868-1.247503z" fill="#6E6E96" /></svg>