<?xml version="1.0" standalone="no"?><!DOCTYPE svg PUBLIC "-//W3C//DTD SVG 1.1//EN" "http://www.w3.org/Graphics/SVG/1.1/DTD/svg11.dtd"><svg class="icon" width="200px" height="200.00px" viewBox="0 0 1024 1024" version="1.1" xmlns="http://www.w3.org/2000/svg"><path d="M848.833418 748.559259v-65.2269h-15.927403c-43.041717-92.96043-168.033287-160.204911-315.529901-160.204911s-272.479983 67.244481-315.517599 160.204911h-16.034023v77.270871h0.110721c4.568261 125.048981 151.216015 233.239683 331.453203 233.239683 183.115931 0 331.563924-111.426212 331.563925-239.263719a326.790624 326.790624 0 0 0-0.118923-6.019935z" fill="#A8A8C2" /><path d="M317.217369 842.1102a206.404223 158.564601 0 1 0 412.808445 0 206.404223 158.564601 0 1 0-412.808445 0Z" fill="#FFFFFF" opacity=".23" /><path d="M517.384315 1010.241906c-179.568762 0-330.723266-103.24927-346.593258-233.239683h-1.263038l-0.110721-16.403094v-93.673964h22.258997c50.69376-96.241049 179.827111-160.204911 325.699819-160.204911 145.876809 0 275.014261 63.967963 325.712121 160.204911h22.148276v81.404451c0.057411 2.054487 0.102519 4.125378 0.110721 6.183966 0 66.760589-37.846037 132.668218-103.835681 180.876909-66.071659 48.270203-152.770209 74.851415-244.127236 74.851415z m-315.160831-252.521519l0.098419 2.280029c4.305812 117.864426 148.583319 217.435303 315.058312 217.435303 170.834115 0 315.160831-102.060046 315.160831-222.860626-0.008202-1.80434-0.05331-3.690696-0.10252-5.556547l-0.008201-0.459287v-48.823807h-10.001786l-4.404231-9.509693c-41.73357-90.134997-162.554654-150.695217-300.644093-150.695217-138.085339 0-258.902322 60.56022-300.635893 150.695217l-4.40423 9.509693h-10.112507v57.984935z" fill="#6E6E96" /><path d="M849.153278 688.355806c0 125.676399-146.274584 227.568314-331.777164 227.568314-185.490279 0-331.777165-101.891914-331.777165-227.568314 0-125.672299 146.278684-223.713587 331.777165-223.713586 185.502581-0.004101 331.777165 98.041288 331.777164 223.713586z" fill="#C3C3DB" /><path d="M720.503818 669.008358c0 76.594244-89.138509 138.684052-202.192728 138.684052s-202.192728-62.093909-202.192728-138.684052c0-76.586042 89.146711-136.334309 202.192728-136.334309 113.050118-0.008202 202.192728 59.744166 202.192728 136.334309z" fill="#C3C3DB" /><path d="M510.814877 530.168476c-113.046018 0-202.196829 59.752368-202.19683 136.33841 0 76.594244 89.146711 138.679951 202.19683 138.679951s202.196829-62.093909 202.196829-138.679951c0-76.594244-89.154912-136.342511-202.196829-136.33841z m2.349743 246.284243c-99.857931 0-178.60098-54.843742-178.60098-122.494199 0-67.654558 78.74715-120.435611 178.60098-120.435611 99.85383 0 178.60098 52.781053 178.600979 120.435611 0 67.650457-78.743049 122.494199-178.600979 122.494199z" fill="#6E6E96" opacity=".15" /><path d="M536.190462 797.83005c-104.41389 0-186.757418-54.19582-186.757418-121.046626 0-66.846706 82.343528-118.99624 186.757418-118.99624 99.710303 0 179.232499 47.56487 186.207914 110.056554-3.826021-74.150183-91.463648-131.30266-202.016395-131.30266-113.046018 0-202.192728 59.752368-202.192729 136.33841 0 76.594244 89.146711 138.679951 202.192729 138.679951 88.367564 0 162.119972-37.932153 190.11185-91.082276-26.745243 45.256134-93.973321 77.352887-174.303369 77.352887z" fill="#FFFFFF" opacity=".2" /><path d="M518.31109 824.091402c-122.576215 0-218.595822-68.117945-218.595821-155.083044 0-42.631639 23.419516-81.871939 65.944535-110.495337l18.322255 27.216833c-33.183458 22.336912-51.460604 51.911689-51.460604 83.282605 0 67.420814 83.344117 122.276858 185.789635 122.276858 102.441418 0 185.789635-54.856044 185.789635-122.276858 0-39.359222-29.488661-76.159562-78.882475-98.443164l13.487443-29.90694c61.491096 27.741731 98.201218 75.72488 98.201219 128.350104 0 86.960999-96.019607 155.078944-218.595822 155.078943z" fill="#6E6E96" /><path d="M546.708945 899.738367c-171.33851 0-306.450789-88.92937-306.450789-198.625055 0-109.679283 135.116379-195.25422 306.450789-195.25422 163.616754-0.004101 294.09926 78.045917 305.544518 180.589855-6.270082-121.669944-150.0719-215.450528-331.473707-215.446428-185.49848 0-331.781265 98.05359-331.781266 223.717687 0 125.6805 146.282785 227.568314 331.781266 227.568314 144.991042 0 266.017164-62.249739 311.958127-149.452683-43.898778 74.2404-154.20958 126.902531-286.028938 126.90253z" fill="#FFFFFF" opacity=".2" /><path d="M440.097041 674.728936l275.772904 196.480352 65.009559-43.968492-174.832369-190.070842z" fill="#6E6E96" opacity=".15" /><path d="M517.376114 932.327213c-92.751291 0-179.675382-24.698958-244.754655-69.553216-66.694977-45.961467-103.425603-107.903648-103.425603-174.418191 0-134.644791 152.93834-240.11668 348.180258-240.11668 93.042445 0 179.913227 23.977221 244.611127 67.523334 66.785194 44.952677 103.56913 106.246935 103.569131 172.593346 0 66.514543-36.726526 128.456724-103.421503 174.418191-65.079272 44.854258-152.003364 69.553216-244.758755 69.553216z m0-451.2819c-176.845849 0-315.374071 91.061772-315.374072 207.310493 0 116.437357 141.476679 211.16522 315.374072 211.16522 173.897393 0 315.374071-94.731964 315.374071-211.16522 0-55.085688-31.637466-106.714424-89.081098-145.376514-59.34229-39.941532-139.705145-61.933979-226.292973-61.933979z" fill="#6E6E96" /><path d="M601.294339 635.726482l-21.467549-214.388429c0-21.332223-32.748776-38.625184-62.450676-38.625183-42.406097 0-62.450677 17.292961-62.450677 38.625183l-21.463447 214.388429a45.198723 45.198723 0 0 0-1.75103 12.421242c0 33.979008 38.358633 61.528003 85.665154 61.528003 47.318823 0 85.681557-27.557197 85.681557-61.528003a45.723622 45.723622 0 0 0-1.763332-12.421242z" fill="#D5D5F0" /><path d="M517.376114 726.082921c-57.234493 0-102.068247-34.233256-102.068248-77.931096 0-5.175176 0.664325-10.346251 1.968372-15.406606l21.254308-212.292933c0.615116-39.937431 42.738259-54.14251 78.845568-54.142509 36.939766 0 78.054119 22.16468 78.845568 54.0933l21.26661 212.346243a62.0447 62.0447 0 0 1 1.972472 15.353295c-0.004101 43.74705-44.841956 77.980305-102.08465 77.980306z m0-326.966958c-27.971375 0-46.047583 8.722345-46.047584 22.22209l-0.082015 1.632108-21.611075 215.848304-0.401876 1.410666a28.971963 28.971963 0 0 0-1.119511 7.922694c0 24.461113 31.715381 45.124909 69.262061 45.124909 37.550781 0 69.278464-20.663797 69.278464-45.124909a29.472258 29.472258 0 0 0-1.127713-7.926795l-0.401876-1.406565-0.147627-1.455775-21.549564-215.204482v-0.820155c-0.004101-8.369678-21.524959-22.222091-46.051684-22.22209z" fill="#6E6E96" /><path d="M601.294339 635.726482l-21.467549-214.388429c0-21.332223-32.748776-38.625184-62.450676-38.625183-42.406097 0-62.450677 17.292961-62.450677 38.625183l-21.463447 214.388429a45.198723 45.198723 0 0 0-1.75103 12.421242c0 33.979008 38.358633 61.528003 85.665154 61.528003 47.318823 0 85.681557-27.557197 85.681557-61.528003a45.723622 45.723622 0 0 0-1.763332-12.421242z" fill="#D5D5F0" /><path d="M517.376114 726.082921c-57.234493 0-102.068247-34.233256-102.068248-77.931096 0-5.175176 0.664325-10.346251 1.968372-15.406606l21.254308-212.292933c0.615116-39.937431 42.738259-54.14251 78.845568-54.142509 36.939766 0 78.054119 22.16468 78.845568 54.0933l21.26661 212.346243a62.0447 62.0447 0 0 1 1.972472 15.353295c-0.004101 43.74705-44.841956 77.980305-102.08465 77.980306z m0-326.966958c-27.971375 0-46.047583 8.722345-46.047584 22.22209l-0.082015 1.632108-21.611075 215.848304-0.401876 1.410666a28.971963 28.971963 0 0 0-1.119511 7.922694c0 24.461113 31.715381 45.124909 69.262061 45.124909 37.550781 0 69.278464-20.663797 69.278464-45.124909a29.472258 29.472258 0 0 0-1.127713-7.926795l-0.401876-1.406565-0.147627-1.455775-21.549564-215.204482v-0.820155c-0.004101-8.369678-21.524959-22.222091-46.051684-22.22209z" fill="#6E6E96" /><path d="M569.419028 408.847098l-13.30701-176.001089h-0.008201c0-13.237296-20.31113-23.956718-38.735905-23.956718-26.290058 0-38.723602 10.723522-38.723602 23.956718v0.008201l-13.31111 175.984686a27.995979 27.995979 0 0 0-1.082604 7.701253c0 21.077975 23.784485 38.157696 53.125518 38.157695s53.125518-17.083822 53.125518-38.157695c0-2.628596-0.37317-5.207982-1.082604-7.693051z" fill="#D5D5F0" /><path d="M517.376114 471.100937c-38.986052 0-69.528611-23.964919-69.528612-54.560788 0-3.50206 0.418279-7.00002 1.242535-10.415964l13.159381-173.983509c0.364969-18.457581 14.951419-39.654478 55.118494-39.654478 26.359771 0 54.560789 15.890497 55.130796 39.625772l13.167584 174.028618c0.820155 3.415944 1.238434 6.905702 1.238433 10.403662 0 30.591769-30.54256 54.556688-69.528611 54.556687z m-0.008202-245.808553c-13.971335 0-22.320509 3.842425-22.320509 7.553625l-0.045108 1.238433-13.434134 177.657802-0.459286 1.607503c-0.299356 1.045697-0.451085 2.1201-0.451085 3.190402 0 10.28884 15.082644 21.754602 36.722425 21.754602s36.722425-11.461661 36.722424-21.754602c0-1.066201-0.151729-2.140604-0.451085-3.194503l-0.455185-1.603402-13.471041-178.149895c-1.730526-2.644999-10.838344-8.299965-22.357416-8.299965z" fill="#6E6E96" /><path d="M569.419028 408.847098l-13.30701-176.001089h-0.008201c0-13.237296-20.31113-23.956718-38.735905-23.956718-26.290058 0-38.723602 10.723522-38.723602 23.956718v0.008201l-13.31111 175.984686a27.995979 27.995979 0 0 0-1.082604 7.701253c0 21.077975 23.784485 38.157696 53.125518 38.157695s53.125518-17.083822 53.125518-38.157695c0-2.628596-0.37317-5.207982-1.082604-7.693051z" fill="#D5D5F0" /><path d="M517.376114 471.100937c-38.986052 0-69.528611-23.964919-69.528612-54.560788 0-3.50206 0.418279-7.00002 1.242535-10.415964l13.159381-173.983509c0.364969-18.457581 14.951419-39.654478 55.118494-39.654478 26.359771 0 54.560789 15.890497 55.130796 39.625772l13.167584 174.028618c0.820155 3.415944 1.238434 6.905702 1.238433 10.403662 0 30.591769-30.54256 54.556688-69.528611 54.556687z m-0.008202-245.808553c-13.971335 0-22.320509 3.842425-22.320509 7.553625l-0.045108 1.238433-13.434134 177.657802-0.459286 1.607503c-0.299356 1.045697-0.451085 2.1201-0.451085 3.190402 0 10.28884 15.082644 21.754602 36.722425 21.754602s36.722425-11.461661 36.722424-21.754602c0-1.066201-0.151729-2.140604-0.451085-3.194503l-0.455185-1.603402-13.471041-178.149895c-1.730526-2.644999-10.838344-8.299965-22.357416-8.299965z" fill="#6E6E96" /><path d="M552.46233 222.67199l-8.972492-155.259378h-52.243852l-8.972492 155.255277c-0.47979 1.681317-0.729938 3.415944-0.729937 5.199781 0 14.209179 16.034024 25.732352 35.824355 25.732352 19.786231 0 35.820255-11.523173 35.820255-25.732352a18.510891 18.510891 0 0 0-0.725837-5.19568z" fill="#D5D5F0" /><path d="M517.367912 270.003116c-29.287723 0-52.227449-18.50679-52.227449-42.135446 0-2.579386 0.282953-5.154672 0.848861-7.680748l9.776243-169.177403h83.208791l9.780344 169.177403c0.570007 2.554782 0.852961 5.150571 0.840659 7.754562-0.004101 23.554842-22.943827 42.061632-52.227449 42.061632z m-10.641506-186.187411l-8.185144 141.612005-0.500294 1.746929a2.398952 2.398952 0 0 0-0.098419 0.693031c0 3.28882 7.37319 9.329259 19.421262 9.329259 12.048072 0 19.417162-6.040439 19.417162-9.329259a2.357945 2.357945 0 0 0-0.090217-0.680728l-0.500294-1.751031-8.185144-141.620206h-21.278912z" fill="#6E6E96" /><path d="M543.50214 59.211066c0 8.923283-9.38667 16.144744-26.126026 16.144744-17.744046 0-26.117825-7.225563-26.117825-16.144744s8.373779-16.152946 26.117825-16.152946c12.417142 0 26.126027 7.233764 26.126026 16.152946z" fill="#C3C3DB" /><path d="M517.376114 91.758903c-29.373839 0-42.520918-16.345682-42.520919-32.547837 0-16.206256 13.147079-32.556039 42.520919-32.55604 20.540773 0 42.52912 13.081467 42.52912 32.55604 0 15.677256-13.307009 32.547838-42.52912 32.547837z" fill="#6E6E96" /><path d="M337.676127 382.118258a16.378489 16.378489 0 0 1-11.601088-4.802006c-26.573011-26.573011-39.494548-55.274323-38.399641-85.304286 1.705922-46.908746 37.743517-78.574917 39.273106-79.899467a16.403093 16.403093 0 0 1 21.496254 24.785074c-0.512597 0.455186-26.954383 24.198663-27.99598 56.566067-0.660225 20.462859 9.038104 40.872407 28.824336 60.658638a16.403093 16.403093 0 0 1-11.596987 27.99598z" fill="#00DEC2" /><path d="M270.017468 436.420698a16.357985 16.357985 0 0 1-12.138289-5.367913c-47.031769-51.710751-69.016015-105.398075-65.341721-159.577492 5.388416-79.505793 64.427249-129.830483 66.941023-131.934179a16.403093 16.403093 0 0 1 21.094378 25.125438c-0.709434 0.602814-51.06693 44.06691-55.331734 109.375825-2.923851 44.805049 16.222659 90.20471 56.90233 134.931845a16.403093 16.403093 0 0 1-1.099007 23.169369 16.296473 16.296473 0 0 1-11.02698 4.277107z" fill="#00DEC2" /><path d="M190.130304 493.503462a16.357985 16.357985 0 0 1-12.138289-5.367912C72.315087 371.952441 78.203797 264.073397 101.754538 194.03629c25.29767-75.245089 75.048252-122.465494 77.151949-124.442066a16.403093 16.403093 0 0 1 22.447633 23.91981c-0.676628 0.639721-46.510971 44.517995-68.892991 112.131545C102.886352 295.00553 126.36738 382.622653 202.260391 466.061087a16.403093 16.403093 0 0 1-12.130087 27.442375z" fill="#00DEC2" /><path d="M688.653112 382.118258a16.403093 16.403093 0 0 1-11.596987-28.00008c18.342759-18.342759 27.52439-37.80913 27.290647-57.861912-0.389573-33.507419-26.753445-59.612941-27.024096-59.867189a16.398992 16.398992 0 1 1 22.656772-23.727074c1.492681 1.427069 36.619906 35.508596 37.165308 83.212891 0.340364 29.21801-12.072677 56.619377-36.898758 81.441358a16.321078 16.321078 0 0 1-11.592886 4.802006z" fill="#00DEC2" /><path d="M753.17878 436.420698a16.403093 16.403093 0 0 1-12.380234-27.155321c119.283294-137.511231 6.397206-240.534959 1.533689-244.853073a16.423597 16.423597 0 0 1-1.422969-23.140664 16.382589 16.382589 0 0 1 23.103757-1.480379c1.443472 1.267139 142.505973 128.48953 1.566496 290.97037a16.366186 16.366186 0 0 1-12.400739 5.659067z" fill="#00DEC2" /><path d="M829.371148 493.503462a16.403093 16.403093 0 0 1-12.380235-27.155321c72.460664-83.532752 94.87139-171.309805 66.60066-260.887096-21.410137-67.843193-65.288412-111.782979-65.727195-112.217662a16.415396 16.415396 0 0 1-0.151728-23.189873 16.38669 16.38669 0 0 1 23.165268-0.192736c2.009379 1.972472 49.463528 49.20928 73.571974 124.388756 22.410726 69.881278 27.987778 177.538879-72.682106 293.590764a16.357985 16.357985 0 0 1-12.396638 5.663168z" fill="#00DEC2" /><path d="M521.476887 59.211066V709.679827s85.681557-6.712966 85.681557-61.528002L547.602914 59.211066h-26.126027z" fill="#6E6E96" opacity=".15" /><path d="M505.073794 460.541446c-185.494379 0-331.777165 98.04949-331.777165 223.713587 0 125.676399 146.282785 227.568314 331.777165 227.568313 185.502581 0 331.777165-101.891914 331.777165-227.568313 0-125.672299-146.274584-223.717687-331.777165-223.713587z m3.858828 404.123007c-163.854599 0-293.065865-89.995571-293.065865-201.015806 0-111.003832 129.211266-197.612165 293.065865-197.612165 163.8587-0.004101 293.061764 86.600131 293.061763 197.612165s-129.207165 201.015806-293.061763 201.015806z" fill="#6E6E96" opacity=".15" /></svg>