<?xml version="1.0" standalone="no"?><!DOCTYPE svg PUBLIC "-//W3C//DTD SVG 1.1//EN" "http://www.w3.org/Graphics/SVG/1.1/DTD/svg11.dtd"><svg class="icon" width="200px" height="179.02px" viewBox="0 0 1144 1024" version="1.1" xmlns="http://www.w3.org/2000/svg"><path d="M890.658245 99.689457l169.267983-72.784394s52.640544-11.313733 46.587603 27.948835L912.558799 947.082459l-193.274717-132.973639L868.123973 129.446252s4.212362-21.881915 22.534272-29.756795z" fill="#C1C1D4" /><path d="M854.960343 908.75649c-0.326178 0.945918-0.591781 1.901154-0.801468 2.861051l53.414053 26.476372L1080.209868 58.227515c5.950427-38.712724-27.576059-27.55742-27.576059-27.55742l-8.92797 3.834926-188.745496 874.251469z" fill="#ABABB5" /><path d="M719.284082 814.104161s-5.843254 30.013078-34.514341 30.013078h-461.635716c-39.761154 0-67.281297 13.350018-67.281297 13.350018l-88.827714 63.120192s-43.866343 26.937681 26.942341 26.937681h695.817871c58.842594 0 65.193755-30.213445 65.193755-30.213445l-135.694899-103.207524z" fill="#C1C1D4" /><path d="M789.785226 966.168559H93.967355c-25.469878 0-52.286407-2.777177-58.101703-23.345058-5.419222-19.183953 13.825307-33.340098 20.819505-37.757487l88.366404-62.794014c0.843404-0.596441 1.733406-1.122986 2.660685-1.574976 1.281415-0.624399 31.876955-15.223215 75.421779-15.223214h461.635716c13.158971 0 16.099237-14.328554 16.215729-14.938974a18.662068 18.662068 0 0 1 11.65855-13.853265 18.615471 18.615471 0 0 1 17.925837 2.58147l135.694899 103.207524a18.638769 18.638769 0 0 1 6.952261 18.671387c-0.969216 4.613095-11.537398 45.026607-83.431791 45.026607z m-702.141074-37.361413c1.933772 0.055916 4.035294 0.088534 6.323203 0.088534h695.817871c19.514791 0 31.816379-3.802309 38.996965-8.079906l-102.802131-78.189637c-8.434043 10.885041-21.700187 20.13919-41.214979 20.13919h-461.635715c-30.180827 0-52.631224 8.694986-57.994531 10.973576l-77.490683 55.068243z" fill="#6E6E96" /><path d="M53.777509 934.776212l0.009319-0.046597h-0.023298l0.013979 0.046597z m801.201472-17.455207s-6.351161 30.213445-65.198414 30.213444H93.962695c-21.569716 0-32.464076-2.506914-37.230941-5.978385l10.945617 25.092443s15.335047 31.727845 64.699827 31.727845h687.626133s80.086131-1.323353 88.715882-54.271436l-53.740232-26.783911z" fill="#ABABB5" /><path d="M820.007991 1017.010462H132.377198c-60.366314 0-80.649954-40.525344-81.484039-42.24943a41.662309 41.662309 0 0 1-0.30288-0.661677l-10.945617-25.092443a19.044162 19.044162 0 0 1-1.141625-3.546026 18.699345 18.699345 0 0 1-2.586129-5.344667l-0.013979-0.046597a18.638769 18.638769 0 0 1 32.547951-16.821489 18.638769 18.638769 0 0 1 2.376443 3.970058c3.690476 0.768849 10.684674 1.677489 23.126053 1.677489H789.771247c31.811719 0 44.462784-10.111532 47.006976-15.90353 0.670996-5.889851 4.007335-10.106873 9.24017-13.042478 5.386604-3.019481 11.742425-2.059584 17.26416 0.684974l53.740231 26.779252a18.648089 18.648089 0 0 1 10.083574 19.68254c-3.294402 20.190447-16.406777 47.281898-60.161287 61.694326-23.522127 7.749068-45.711581 8.201058-46.64352 8.215038l-0.29356 0.00466zM90.966513 966.15924c6.82179 6.080898 19.640603 13.573684 41.410685 13.573683H819.779666c1.593615-0.051257 18.811178-0.703614 36.229107-6.584145 14.123527-4.762206 24.002075-11.388288 29.52847-19.775734l-23.629299-11.775043c-10.89902 11.942791-31.923552 24.575217-72.127377 24.575218H93.962695a315.927138 315.927138 0 0 1-2.996182-0.013979z" fill="#6E6E96" /><path d="M732.862425 748.54229l124.096926-574.926815 174.733801-74.475862-162.623261 741.375683z" fill="#82C2D1" /><path d="M762.549325 611.006812l240.221117-351.242946-23.946159 104.740564-224.438739 329.179302z" fill="#B3F1FF" opacity=".25" /><path d="M854.99762 935.964433a18.643429 18.643429 0 0 1-18.228716-22.613486l193.176863-886.64625a18.638769 18.638769 0 1 1 36.424815 7.935456l-193.176863 886.64625a18.657408 18.657408 0 0 1-18.196099 14.67803z" fill="#6E6E96" /><path d="M795.628481 457.772831l210.133483-292.27454-140.648152 58.353327z" fill="#B3F1FF" opacity=".31" /><path d="M983.754238 1017.010462h-163.760226a18.638769 18.638769 0 0 1 0-37.277539h163.760226a18.638769 18.638769 0 0 1 0 37.277539zM1082.502437 1017.010462h-49.3741a18.638769 18.638769 0 0 1 0-37.277539h49.3741a18.638769 18.638769 0 0 1 0 37.277539z" fill="#6E6E96" opacity=".23" /><path d="M847.020227 229.359374a18.638769 18.638769 0 0 1-7.040795-35.902929l175.549247-71.558895a18.638769 18.638769 0 0 1 14.072271 34.519001l-175.549247 71.558895a18.545575 18.545575 0 0 1-7.031476 1.383928zM828.917322 959.985147a18.568874 18.568874 0 0 1-11.723786-4.156445l-126.193786-102.22433a18.638769 18.638769 0 0 1 23.46155-28.969307l126.193787 102.22433a18.638769 18.638769 0 0 1-11.737765 33.125752z" fill="#6E6E96" opacity=".25" /><path d="M881.390117 871.329842l-169.403113-114.395446 128.793895-596.682918 216.866739-92.434316-176.257521 803.51268z m-127.647611-131.179658l103.002499 69.555227 148.998321-679.243346-132.600864 56.512748-119.399956 553.175371z" fill="#6E6E96" /><path d="M912.558799 965.721228a18.638769 18.638769 0 0 1-10.568182-3.285083l-193.274717-132.973639a18.643429 18.643429 0 0 1-7.651215-19.314424L849.909236 125.485514c0.535865-2.800475 6.761214-31.476221 33.391355-42.920426l169.263323-72.784394c1.109007-0.479948 2.26461-0.848064 3.448172-1.099687a101.227155 101.227155 0 0 1 19.580027-1.929113c22.697361 0 34.68209 8.424724 40.74435 15.488817 5.437861 6.337182 11.346351 17.632276 8.597132 35.44628a21.532438 21.532438 0 0 1-0.205027 1.118326L930.773536 951.038538a18.62479 18.62479 0 0 1-18.214737 14.68269z m-172.403955-159.878702l160.088388 110.141147 187.920731-864.461455c0.503247-3.718434-0.125812-5.013829-0.135131-5.027808-0.424032-0.503247-3.825607-2.460318-12.436719-2.460318-4.328854 0-8.196399 0.503247-10.251323 0.834085l-167.320231 71.945649c-8.559855 3.681157-11.570016 16.034001-11.593314 16.155153l-146.272401 672.873547z" fill="#6E6E96" /></svg>