<?xml version="1.0" standalone="no"?><!DOCTYPE svg PUBLIC "-//W3C//DTD SVG 1.1//EN" "http://www.w3.org/Graphics/SVG/1.1/DTD/svg11.dtd"><svg class="icon" width="200px" height="200.00px" viewBox="0 0 1024 1024" version="1.1" xmlns="http://www.w3.org/2000/svg"><path d="M130.371944 921.717094a291.504437 78.373042 0 1 0 583.008873 0 291.504437 78.373042 0 1 0-583.008873 0Z" fill="#D9BFA3" /><path d="M421.87638 1016.483598c-79.258289 0-153.975589-8.352469-210.381391-23.516421-64.709091-17.397561-97.516507-41.3689-97.516507-71.250083s32.807415-53.852522 97.516507-71.250082c56.405803-15.163952 131.123103-23.516421 210.381391-23.516421s153.97149 8.352469 210.381392 23.516421c64.704993 17.397561 97.516507 41.3689 97.516507 71.250082s-32.811513 53.852522-97.516507 71.250083c-56.405803 15.163952-131.119005 23.516421-210.381392 23.516421z m0-156.746084c-178.008403 0-275.110975 40.94267-275.110975 61.97958s97.102572 61.97958 275.110975 61.979581 275.110975-40.94267 275.110975-61.979581-97.102572-61.97958-275.110975-61.97958z" fill="#6E6E96" /><path d="M196.650709 889.987549a224.160096 52.442684 0 1 0 448.320193 0 224.160096 52.442684 0 1 0-448.320193 0Z" fill="#AD9E8C" opacity=".44" /><path d="M240.117973 20.580803l341.311871 71.274672-174.270694 834.619822-341.320068-71.270575s-45.08202-10.848373-45.08202-68.225489c0-112.02472 57.377116-504.090749 156.815756-699.746714C207.699902 27.945565 240.117973 20.580803 240.117973 20.580803z" fill="#E6CBAC" /><path d="M591.372479 875.221139l-184.213329 51.254158 174.274793-834.62392 146.012464 131.73376" fill="#D1B89D" /><path d="M345.036127 100.371879L183.216267 790.495631l-55.512359-10.778701L302.634439 82.675137z" fill="#FFFFFF" opacity=".3" /><path d="M766.643174 876.057205l-175.278892-0.831968 136.06983-651.6401 183.922345 90.188629s104.073891 53.938587 73.131232 175.573974l-41.266441 228.869118s-33.118891 157.840347-176.578074 157.840347z" fill="#E0C6A8" /><path d="M296.179513 90.298097l273.7954 56.43859 148.47968 119.901778 194.836292 98.823885s83.979606 58.467281 73.942709 111.418163c0 0 6.54509-116.885382-58.918101-151.889521-65.459092-35.004139-200.873184-101.405855-200.873184-101.405855L581.433943 91.847279 310.109857 33.302129l-13.930344 56.995968z" fill="#FFFFFF" opacity=".3" /><path d="M310.109857 33.302129L240.117973 20.580803s-32.422169 7.364763-62.553352 66.647618C78.134178 282.884386 20.757062 674.950415 20.757062 786.975135c0 57.377116 45.08202 68.225489 45.08202 68.225489l41.307425 8.622961L310.109857 33.302129z" fill="#FADDBC" /><path d="M119.310455 883.114591l-57.307443-11.975424C42.068562 866.339981 4.363601 842.577658 4.363601 786.975135c0-120.684566 59.914004-513.008792 158.586249-707.172952C195.622019 15.519321 232.400751 5.523408 236.486821 4.593079l3.266397-0.741804 90.414039 16.430347-210.856802 862.832969z m-49.770549-43.885297l25.446751 5.311481L290.052457 46.318537l-48.479565-8.811485c-7.24591 3.352463-28.561509 16.155756-49.3935 57.147607C95.720264 284.466355 37.150524 668.688112 37.150524 786.975135c0 42.479558 30.073805 51.618912 32.389382 52.254159z" fill="#6E6E96" /><path d="M26.974283 765.036585l103.061595 24.188552L293.490985 100.654666l-103.057496-24.204946s-3.500004 0.704919-9.17624 3.844267a200.541216 200.541216 0 0 0-3.676234 6.926237C84.3473 270.671257 28.08494 626.757736 21.425096 762.839861c3.319676 1.581969 5.549187 2.196724 5.549187 2.196724z" fill="#95A9B3" /><path d="M984.508181 505.749398c-1.266395 0-2.549183-0.147541-3.831972-0.454918l-160.455104-38.442668a16.393462 16.393462 0 0 1-12.122965-19.762318 16.413953 16.413953 0 0 1 19.75822-12.122965l160.455104 38.442668a16.393462 16.393462 0 0 1-3.803283 32.340201zM970.692591 584.29867c-1.245903 0-2.504101-0.143443-3.770496-0.438525l-163.192812-38.446766a16.39756 16.39756 0 0 1 7.516402-31.91807l163.192812 38.446766a16.39756 16.39756 0 0 1-3.745906 32.356595zM956.8811 662.843843c-1.22951 0-2.471314-0.139344-3.713119-0.42623l-165.922324-38.442667a16.389363 16.389363 0 1 1 7.397549-31.938562l165.926423 38.442667a16.393462 16.393462 0 0 1-3.688529 32.364792zM943.06551 741.393115c-1.209018 0-2.434429-0.135246-3.65984-0.413935l-168.655934-38.450865a16.401658 16.401658 0 0 1-12.344277-19.627072c2.012297-8.827879 10.836078-14.323787 19.627072-12.344276l168.655934 38.450864a16.401658 16.401658 0 0 1-3.622955 32.385284z" fill="#6E6E96" /><path d="M127.703908 779.71693l293.783128 57.061541 186.733823-42.213164h169.828066s184.721526-18.213136 184.721526-184.717427c0 0-39.704964 235.901913-152.737882 260.910139-113.032918 25.016422-218.664188 4.475415-218.664189 4.475415L407.163248 926.479395 107.150605 863.831781l20.553303-84.114851z" fill="#6E6E96" opacity=".15" /><path d="M407.18374 938.67613c-1.118854 0-2.237708-0.114754-3.348364-0.344262l-341.320069-71.270575-0.487705-0.110656c-19.934449-4.799186-57.635313-28.569705-57.635313-84.16813 0-120.688665 59.918102-513.012891 158.594447-707.172952C195.650708 11.322595 232.421242 1.326682 236.507313 0.400451a16.577888 16.577888 0 0 1 6.983614-0.061475l341.311872 71.274673a16.39756 16.39756 0 0 1 12.700834 19.397563L423.232939 925.631033a16.381167 16.381167 0 0 1-16.049199 13.045097z m-337.623342-103.635366l324.926606 67.844341 167.56167-802.525521L241.408958 33.40049c-7.418041 3.483611-28.541017 16.413953-49.196779 57.061541C95.748953 280.26553 37.175114 664.491386 37.175114 782.782507c0 42.475459 30.073805 51.618912 32.385284 52.258257z" fill="#6E6E96" /><path d="M407.187839 938.67613a16.39756 16.39756 0 0 1-16.049199-19.741826L565.409334 84.306286a16.393462 16.393462 0 0 1 27.032818-8.819682l146.012465 131.737858a16.389363 16.389363 0 0 1 1.188526 23.151666 16.389363 16.389363 0 0 1-23.151667 1.188526l-124.815718-112.614885-162.934616 780.320578 158.258381-44.02874a16.393462 16.393462 0 1 1 8.790994 31.586103L411.585385 938.077769a16.524609 16.524609 0 0 1-4.397546 0.598361z" fill="#6E6E96" /><path d="M25.912806 763.880846S171.482647 125.031743 264.380296 94.974332L189.372012 75.289882S25.912806 432.782101 25.912806 763.880846z" fill="#EDF9FF" opacity=".37" /><path d="M766.667764 888.253941h-0.077869l-195.356784-0.926231 144.487873-691.947524 202.873186 99.479623c1.47951 0.762296 115.221445 61.459088 81.946816 193.76252l-41.266441 228.819938c-0.37705 1.762297-9.487716 43.541034-37.155781 85.004197-37.467257 56.135311-91.217319 85.807477-155.451 85.807477z m-155.127229-33.520531l155.164114 0.733608c53.495964-0.012295 96.610768-23.975438 128.143592-71.221395 23.307404-34.922172 31.651676-70.471393 32.319709-73.434511l41.454967-229.696988c27.418065-107.78701-61.008268-155.020672-64.786961-156.97969L739.192322 243.404832l-127.651787 611.328578z" fill="#6E6E96" /><path d="M684.716849 239.400729l-138.323931 569.140005 60.922202-13.770508 109.323898-523.553887z" fill="#6E6E96" opacity=".15" /><path d="M511.892878 134.765361L339.429563 820.839928l82.057473 20.036909 140.016556-695.886054z" fill="#6E6E96" opacity=".15" /><path d="M141.146546 807.762044l-119.54522-28.065606c-0.856558-0.237705-3.98771-1.155739-8.29919-3.217217l-9.840176-4.700825 0.532788-10.889357C11.216068 613.339687 70.158759 259.171243 161.904767 78.638247c1.282788-2.545085 2.602462-5.000006 3.926234-7.405746l2.286888-4.151644 4.147546-2.290987c7.327877-4.049185 12.467228-5.286891 13.872967-5.56558l3.504102-0.704919 122.537028 28.778722-171.032986 720.463951z m-103.688645-58.012362l79.340256 18.618874L272.683584 111.695662l-81.123045-19.0533-0.413935 0.807378c-87.118954 171.434625-144.032954 504.541569-153.688703 656.299942z" fill="#6E6E96" /><path d="M37.666918 714.171772l64.147615 20.147564 163.934617-634.824507h26.680359L128.974401 774.65135l-108.192749 8.131157z" fill="#6E6E96" opacity=".35" /></svg>