<?xml version="1.0" standalone="no"?><!DOCTYPE svg PUBLIC "-//W3C//DTD SVG 1.1//EN" "http://www.w3.org/Graphics/SVG/1.1/DTD/svg11.dtd"><svg class="icon" width="200px" height="200.00px" viewBox="0 0 1024 1024" version="1.1" xmlns="http://www.w3.org/2000/svg"><path d="M687.077461 103.753488L551.302426 948.824792l-100.54005 39.656071-154.052765-61.410498s-17.4587-14.587918-14.391519-47.244631L408.691003 129.665743s3.518484-24.583421 23.496953-34.328201L599.74635 45.41435s87.331111-3.752492 87.331111 58.339138z" fill="#9F9FBF" /><path d="M450.762376 1005.195751a16.756675 16.756675 0 0 1-6.188688-1.186757L290.520924 942.598496a16.748318 16.748318 0 0 1-4.529735-2.699455c-2.477982-2.068467-24.094511-21.386699-20.316946-61.63197 0.037608-0.405336 0.091932-0.810672 0.158791-1.211829L392.210123 126.886893c1.709097-11.980396 10.59306-35.815826 32.652534-46.576035 0.823208-0.401157 1.675668-0.735455 2.553199-0.994536L594.970071 29.397309c1.303761-0.388621 2.699454-0.618451 4.057539-0.681132 0 0 1.278689-0.058502 3.547735-0.058502 46.693039 0 101.221183 19.669244 101.221183 75.095813 0 0.885889-0.071038 1.775957-0.213115 2.653489L567.804199 951.474101a16.714888 16.714888 0 0 1-10.367409 12.895536l-100.540051 39.656072c-1.972357 0.781421-4.05336 1.170042-6.134363 1.170042zM306.295599 912.900319l144.500206 57.599503 85.513367-33.730643 134.036686-834.240056c-1.090646-37.499851-52.037625-40.441671-67.774692-40.441672h-0.246544L438.489469 110.903281c-10.705886 6.059147-13.246549 21.115082-13.271621 21.269695L298.907619 881.969419c-1.491804 17.479594 4.51302 27.307948 7.38798 30.9309z" fill="#6E6E96" /><path d="M677.136281 86.010635L478.053609 140.827109c-18.687245 9.184831-16.794284 13.146259-19.284802 28.678569L347.004709 842.037551l197.231498 87.063673L692.522336 111.112217c4.705241-37.366132-15.386054-25.101583-15.386055-25.101582z" fill="#83CCDE" /><path d="M378.424519 662.970957L596.796173 240.761246l-20.37127 122.311192-214.510514 401.28685z" fill="#93E6FA" opacity=".37" /><path d="M415.627681 434.478439l190.549722-326.111642-140.785322 40.475101z" fill="#93E6FA" opacity=".55" /><path d="M666.802302 1006.24461h-206.470653a16.714888 16.714888 0 0 1 0-33.429776h206.470653a16.714888 16.714888 0 0 1 0 33.429776z" fill="#6E6E96" opacity=".26" /><path d="M544.236207 929.769819c-1.997429 0-3.999037-0.35937-5.908712-1.07811l-197.231499-74.527506a16.714888 16.714888 0 0 1-10.576345-18.390556L442.283749 166.751901c0.267438-1.675668 0.493089-3.292833 0.697846-4.77628 2.360978-17.053364 6.731921-25.845395 27.700748-36.150123 0.940212-0.463838 1.922212-0.835744 2.933463-1.115719L671.035347 70.352963c2.841531-1.337191 7.425589-2.983607 12.774353-2.983607 7.162329 0 13.685314 2.920927 18.365483 8.227903 6.96593 7.897785 9.168116 19.844751 6.9325 37.600141-0.041787 0.317583-0.087753 0.635166-0.146255 0.952748L560.6753 916.097041a16.719067 16.719067 0 0 1-16.439093 13.672778z m-178.485751-102.027676l165.682147 62.605613L675.99549 108.563197c0.234008-1.934748 0.376085-3.59788 0.447123-5.027002L484.062611 156.509853c-4.868211 2.473803-6.50627 3.781743-6.999359 4.258118-0.313404 1.027966-0.676953 3.652203-0.969464 5.795887-0.238187 1.70074-0.493089 3.551914-0.823208 5.59113L365.750456 827.742143z" fill="#6E6E96" /><path d="M481.572093 932.385699L622.633211 85.69723c8.708457-51.515285-22.895218-40.278701-22.895218-40.278701 0-0.004179 94.7567-14.508523 88.375791 51.749293l-136.811358 851.65697c-18.892002 64.857944-104.083607 38.389919-104.083607 38.389918 32.372559-0.012536 34.353273-54.829011 34.353274-54.829011z" fill="#9F9FBF" /><path d="M485.086398 1009.270005c-22.937005 0-42.029586-5.850211-42.8319-6.100934a16.714888 16.714888 0 0 1 4.955964-32.673427c12.256192-0.004179 17.29573-28.795573 17.6551-38.715859 0.025072-0.71874 0.100289-1.433302 0.217294-2.143685L606.148152 82.95181c2.260689-13.384447 0.994536-19.368376 0.246545-21.486988-1.090646 0.104468-1.99325 0.204757-2.670203 0.288331-4.67599 1.416587-9.494056 0.543234-13.672779-2.235616-4.667632-3.096433-7.02861-8.499521-7.02861-14.099008 0-9.168116 5.127292-13.401161 11.219868-15.461271l-0.104468-0.288332a38.715859 38.715859 0 0 1 14.629706-1.930569 183.153384 183.153384 0 0 1 11.80489-0.384443c22.076188 0 52.162986 4.15365 70.135669 23.93572 11.165545 12.2938 15.89168 28.269054 14.040506 47.478639a17.538096 17.538096 0 0 1-0.133719 1.048859l-136.811358 851.656969a16.815177 16.815177 0 0 1-0.451302 2.022502c-10.480235 35.96626-39.69368 55.773402-82.266499 55.773402z m13.146259-75.154315c-0.576664 12.268728-3.472518 28.160407-10.171009 41.686931 36.781111-1.082289 44.386385-22.222443 46.906154-30.67182L671.520079 95.074282c0.810672-9.322729-1.007072-16.292837-5.5577-21.307303-4.947607-5.444875-13.835748-9.356159-25.448417-11.391196 0.747991 7.509163 0.275796 16.180012-1.399872 26.104476L498.232657 934.11569z" fill="#6E6E96" /><path d="M393.940114 929.874287c-2.38605 0-4.80553-0.513983-7.108006-1.596271l-35.519137-16.714888a16.710709 16.710709 0 1 1 14.232727-30.24559l35.519137 16.714888a16.710709 16.710709 0 0 1 8.006431 22.239158 16.70653 16.70653 0 0 1-15.131152 9.602703z" fill="#6E6E96" /><path d="M455.241965 199.295787l154.612714-36.91483V107.209291l-131.80107 33.617818z" fill="#6E6E96" opacity=".25" /></svg>