<?xml version="1.0" standalone="no"?><!DOCTYPE svg PUBLIC "-//W3C//DTD SVG 1.1//EN" "http://www.w3.org/Graphics/SVG/1.1/DTD/svg11.dtd"><svg class="icon" width="200px" height="200.00px" viewBox="0 0 1024 1024" version="1.1" xmlns="http://www.w3.org/2000/svg"><path d="M902.704031 103.832065c0-44.663504-36.549725-81.204847-81.209039-81.204847H202.500817C157.837312 22.627218 121.295969 59.168561 121.295969 103.832065v808.666337c0 44.663504 36.541343 81.204847 81.204848 81.204847h618.994175c44.659313 0 81.209038-36.541343 81.209039-81.204847V103.832065z" fill="#D0D0DB" /><path d="M167.396987 963.909419V155.243082c0-44.663504 36.541343-81.204847 81.204847-81.204847h618.994176c10.008112 0 19.567787 1.919479 28.444328 5.27228-11.609075-30.728424-41.293939-52.768901-75.94514-52.768902H201.105213c-44.663504 0-81.204847 36.541343-81.204848 81.204848v808.670527c0 34.659583 22.040478 64.336066 52.764711 75.928377A80.307973 80.307973 0 0 1 167.396987 963.909419z" fill="#FFFFFF" opacity=".15" /><path d="M822.894787 19.836011H203.900611c-44.663504 0-81.204847 36.541343-81.204847 81.204847v808.666337c0 44.663504 36.541343 81.204847 81.204847 81.204847h618.994176c44.659313 0 81.209038-36.541343 81.209039-81.204847V101.040858c0-44.663504-36.549725-81.204847-81.209039-81.204847z m19.743809 834.79304c0 41.143063-33.674698 74.817761-74.826143 74.817761H197.517716c-41.151445 0-74.817761-33.666316-74.817761-74.817761V109.577928c0-41.151445 33.666316-74.817761 74.817761-74.817761h570.30731c41.138872 0 74.821952 33.666316 74.821952 74.817761l-0.008382 745.051123z" fill="#6E6E96" opacity=".15" /><path d="M817.303991 1010.467256H198.309815C144.287804 1010.467256 100.340961 966.520413 100.340961 912.498402V103.832065C100.340961 49.810054 144.287804 5.863211 198.309815 5.863211h618.994176c54.022011 0 97.973045 43.946843 97.973045 97.968854v808.666337c0 54.022011-43.951034 97.968854-97.973045 97.968854zM198.309815 39.391224C162.774312 39.391224 133.868974 68.296562 133.868974 103.832065v808.666337c0 35.535503 28.905338 64.440841 64.440841 64.440841h618.994176c35.535503 0 64.445032-28.905338 64.445032-64.440841V103.832065c0-35.535503-28.909529-64.440841-64.445032-64.440841H198.309815z" fill="#6E6E96" /><path d="M300.423569 927.38484h433.102299v66.318409H300.423569z" fill="#8A8AA1" /><path d="M733.525868 1010.467256H300.423569a16.764006 16.764006 0 0 1-16.764006-16.764007V927.38484a16.764006 16.764006 0 0 1 16.764006-16.764007h433.102299a16.764006 16.764006 0 0 1 16.764007 16.764007v66.318409a16.764006 16.764006 0 0 1-16.764007 16.764007z m-416.338292-33.528013h399.574286v-32.790397H317.187576v32.790397z" fill="#6E6E96" /><path d="M335.963263 946.323976h20.955008v47.379273h-20.955008zM385.65597 946.323976h20.955008v47.379273h-20.955008zM435.340294 946.323976h20.955008v47.379273h-20.955008zM485.037191 946.323976h20.955008v47.379273h-20.955008zM534.721515 946.323976h20.955008v47.379273h-20.955008zM584.418413 946.323976h20.955008v47.379273h-20.955008zM634.102737 946.323976h20.955008v47.379273h-20.955008zM683.799634 946.323976h20.955008v47.379273h-20.955008z" fill="#FFE599" /><path d="M217.031019 120.860105m-27.069679 0a27.069679 27.069679 0 1 0 54.139359 0 27.069679 27.069679 0 1 0-54.139359 0Z" fill="#ADADD1" /><path d="M217.031019 164.693791c-24.169506 0-43.833686-19.66418-43.833686-43.833686s19.66418-43.833686 43.833686-43.833686 43.833686 19.66418 43.833686 43.833686-19.66418 43.833686-43.833686 43.833686z m0-54.139359c-5.682998 0-10.305673 4.622675-10.305673 10.305673s4.622675 10.305673 10.305673 10.305673 10.305673-4.622675 10.305673-10.305673-4.622675-10.305673-10.305673-10.305673z" fill="#6E6E96" /><path d="M803.381483 120.860105m-27.065488 0a27.065488 27.065488 0 1 0 54.130977 0 27.065488 27.065488 0 1 0-54.130977 0Z" fill="#ADADD1" /><path d="M803.381483 164.6896c-24.169506 0-43.829495-19.659989-43.829495-43.829495s19.659989-43.829495 43.829495-43.829495 43.829495 19.659989 43.829495 43.829495-19.659989 43.829495-43.829495 43.829495z m0-54.130977c-5.678807 0-10.301482 4.622675-10.301482 10.301482s4.622675 10.301482 10.301482 10.301482 10.301482-4.622675 10.301482-10.301482-4.622675-10.301482-10.301482-10.301482z" fill="#6E6E96" /><path d="M803.377292 890.839305m-27.065488 0a27.065488 27.065488 0 1 0 54.130977 0 27.065488 27.065488 0 1 0-54.130977 0Z" fill="#ADADD1" /><path d="M803.377292 934.6688c-24.169506 0-43.829495-19.659989-43.829495-43.829495s19.659989-43.829495 43.829495-43.829495 43.829495 19.659989 43.829495 43.829495-19.659989 43.829495-43.829495 43.829495z m0-54.130977c-5.678807 0-10.301482 4.622675-10.301482 10.301482s4.622675 10.301482 10.301482 10.301482 10.301482-4.622675 10.301482-10.301482-4.622675-10.301482-10.301482-10.301482z" fill="#6E6E96" /><path d="M217.031019 890.839305m-27.065488 0a27.065488 27.065488 0 1 0 54.130977 0 27.065488 27.065488 0 1 0-54.130977 0Z" fill="#ADADD1" /><path d="M217.031019 934.6688c-24.169506 0-43.829495-19.659989-43.829495-43.829495s19.659989-43.829495 43.829495-43.829495 43.829495 19.659989 43.829495 43.829495-19.66418 43.829495-43.829495 43.829495z m0-54.130977c-5.678807 0-10.301482 4.622675-10.301482 10.301482s4.622675 10.301482 10.301482 10.301482 10.301482-4.622675 10.301482-10.301482-4.622675-10.301482-10.301482-10.301482z" fill="#6E6E96" /><path d="M521.037895 762.11269c-143.575334 0-260.38274-116.811597-260.38274-260.395312a16.764006 16.764006 0 0 1 33.528013 0c0 125.097207 101.765901 226.8673 226.854727 226.867299s226.854727-101.770092 226.854727-226.867299c0-125.088825-101.765901-226.850536-226.854727-226.850536a16.764006 16.764006 0 0 1 0-33.528013c143.575334 0 260.38274 116.807406 260.38274 260.378549 0 143.583716-116.807406 260.395313-260.38274 260.395312z" fill="#6E6E96" opacity=".44" /><path d="M521.033704 501.72576m-83.916426 0a83.916426 83.916426 0 1 0 167.832852 0 83.916426 83.916426 0 1 0-167.832852 0Z" fill="#A9A9BA" /><path d="M521.033704 602.406192c-55.514008 0-100.680432-45.162234-100.680432-100.676241 0-55.518199 45.166425-100.680432 100.680432-100.680433s100.676241 45.166425 100.676241 100.680433c0 55.509817-45.162234 100.676241-100.676241 100.676241z m0-167.832852c-37.027499 0-67.152419 30.12492-67.152419 67.15242s30.12492 67.148228 67.152419 67.148228 67.148228-30.12492 67.148228-67.148228c0-37.027499-30.120729-67.152419-67.148228-67.15242z" fill="#6E6E96" /><path d="M300.423569 927.38484h433.102299v37.245431H300.423569z" fill="#6E6E96" opacity=".25" /></svg>