<?xml version="1.0" standalone="no"?><!DOCTYPE svg PUBLIC "-//W3C//DTD SVG 1.1//EN" "http://www.w3.org/Graphics/SVG/1.1/DTD/svg11.dtd"><svg class="icon" width="200px" height="144.12px" viewBox="0 0 1421 1024" version="1.1" xmlns="http://www.w3.org/2000/svg"><path d="M1032.378648 967.655822c196.719953 0 356.187235-154.275194 356.187235-344.616456 0-157.18878-108.811003-289.720715-257.537571-331.107-78.789372-148.292038-237.120188-249.62688-419.773595-249.62688-227.772202 0-417.896198 157.539747-462.847867 367.295628C118.153418 442.335778 22.283638 552.623071 22.283638 683.662002c0 156.832242 137.244924 283.99382 306.53929 283.99382h703.55572z" fill="#ABABCF" /><path d="M319.051553 395.918961s67.764542-271.091594 372.437577-271.091594c304.667465 0 382.415076 170.519966 382.415076 170.519966l57.124106-3.420538S992.853046 42.299915 711.254717 42.299915 265.453833 335.591583 248.40685 409.601114l70.644703-13.682153z" fill="#FCFCFC" opacity=".12" /><path d="M977.109656 435.255152a22.283638 22.283638 0 0 1-22.283638-22.283638c0-44.639697 14.233674-80.020543 42.305486-105.150915 52.227276-46.762214 132.93304-38.422562 136.353579-38.038169A22.283638 22.283638 0 0 1 1153.178247 294.389137a22.261354 22.261354 0 0 1-24.545427 19.698735c-0.640655-0.066851-64.694971-6.406546-101.914216 27.069049-18.384001 16.54003-27.31974 40.032555-27.31974 71.820164a22.289209 22.289209 0 0 1-22.289208 22.278067z" fill="#6E6E96" /><path d="M248.40685 409.606685s77.647335-27.737558 128.548735 24.784976" fill="#AAE3FC" /><path d="M376.961156 456.675299a22.227929 22.227929 0 0 1-16.005223-6.774226c-40.450373-41.742824-104.404413-19.54275-105.050638-19.308772a22.266925 22.266925 0 0 1-28.478489-13.487172 22.272496 22.272496 0 0 1 13.487171-28.478489c3.715797-1.331447 91.853154-31.860031 152.046831 30.26118a22.283638 22.283638 0 0 1-15.999652 37.787479z" fill="#6E6E96" /><path d="M1087.714491 248.607403a331.859073 331.859073 0 0 1 28.991012 9.581964 469.460536 469.460536 0 0 0-120.548908-126.44293c37.029835 33.302896 68.148935 72.800644 91.557896 116.860966z m-782.82419 29.09686a455.160011 455.160011 0 0 0-37.018693 81.831088 287.626053 287.626053 0 0 1 11.615346-3.180989 413.807151 413.807151 0 0 1 25.403347-78.650099z m930.876678 58.878942c54.433356 56.36089 87.78082 131.985986 87.78082 215.215372 0 174.297043-146.019106 315.569734-326.165604 315.569734H353.123235c-155.027267 0-280.701412-116.426436-280.701413-260.050051 0-35.263857 7.632146-68.862011 21.364438-99.524297C52.522534 556.160599 27.854547 617.228908 27.854547 683.662002c0 156.832242 137.244924 283.99382 306.53929 283.99382h703.561291c196.725524 0 356.192806-154.275194 356.192806-344.616456-0.011142-119.484865-62.906709-224.663635-158.380955-286.456161z" fill="#6E6E96" opacity=".15" /><path d="M104.409984 727.956303S47.118752 609.490915 165.962962 531.498183s206.123648 57.569778 252.546036 11.141819c46.422388-46.422388-24.823972-204.084695-196.251996-125.250756s-168.258177 217.337889-117.847018 310.567057zM957.037669 382.944313s-14.863186 122.560007 70.561138 122.560007 14.857615-122.560007 81.708529-122.560007 224.368376 52.299698 208.758688 226.697016c0 0 50.96825-314.293996-244.161818-314.293996L957.037669 382.944313z" fill="#6E6E96" opacity=".15" /><path d="M1032.378648 989.93946H328.822928C147.51211 989.93946 0 852.53855 0 683.662002 0 549.848759 93.763976 431.56721 229.677453 391.612648 282.589951 175.483646 482.90314 20.021848 711.254717 20.021848c182.163167 0 347.920005 96.733271 434.915326 253.114269 156.33086 47.72041 264.679477 190.274411 264.679477 349.897678 0 202.313146-169.784606 366.905664-378.470872 366.905665zM711.254717 64.589124c-212.145801 0-397.634801 147.060867-441.06004 349.680412l-2.902444 13.559594-13.453746 3.381542C130.621113 462.179357 44.567275 565.987683 44.567275 683.662002c0 144.303266 127.518116 261.710182 284.255653 261.710183h703.561291c184.112985 0 333.903597-144.598525 333.903597-322.332819 0-142.787979-99.201184-270.116684-241.231519-309.636715l-9.214285-2.562619-4.490152-8.445498c-77.937023-146.687616-231.24845-237.80541-400.097143-237.80541z" fill="#6E6E96" /></svg>