<?xml version="1.0" standalone="no"?><!DOCTYPE svg PUBLIC "-//W3C//DTD SVG 1.1//EN" "http://www.w3.org/Graphics/SVG/1.1/DTD/svg11.dtd"><svg class="icon" width="200px" height="142.22px" viewBox="0 0 1440 1024" version="1.1" xmlns="http://www.w3.org/2000/svg"><path d="M1043.735199 989.564781c198.883946 0 360.105428-155.972279 360.105428-348.407366 0-158.917915-110.007964-292.907751-260.370581-334.749301-79.656084-149.923305-239.728599-252.372869-424.391261-252.372869-230.277781 0-422.493213 159.272743-467.939366 371.336018C119.453149 458.46602 22.528766 569.966515 22.528766 702.446923c0 158.557455 138.75467 287.117858 309.911337 287.117858h711.295096z" fill="#AAE3FC" /><path d="M322.561239 411.5386s68.509977-274.073703 376.53453-274.073702c308.018921 0 386.621785 172.395749 386.621785 172.395749l57.752492-3.458165S1003.7748 54.029613 719.078785 54.029613 268.373925 350.547599 251.139419 425.371263l71.42182-13.832663z" fill="#FCFCFC" opacity=".25" /><path d="M1143.464414 306.408114s-155.611819-17.24577-155.611819 122.376257" fill="#AAE3FC" /><path d="M987.858227 451.307504a22.528766 22.528766 0 0 1-22.528766-22.528766c0-45.13075 14.390249-80.900799 42.770862-106.307614 52.801795-47.276615 134.395353-38.839593 137.853519-38.456604a22.528766 22.528766 0 0 1-4.905638 44.792819c-0.647702-0.067586-65.40664-6.47702-103.035312 27.366819-18.586232 16.721977-27.620267 40.472928-27.620267 72.610213a22.534398 22.534398 0 0 1-22.534398 22.523133z" fill="#6E6E96" /><path d="M251.139419 425.376895s78.501485-28.042681 129.962818 25.05762" fill="#AAE3FC" /><path d="M381.10787 472.963281a22.472444 22.472444 0 0 1-16.181286-6.848745c-40.895342-42.196379-105.552901-19.752096-106.206236-19.521176a22.511869 22.511869 0 0 1-28.791762-13.635535 22.517502 22.517502 0 0 1 13.635535-28.791763c3.762304-1.346094 92.863573-32.210503 153.719403 30.594064a22.528766 22.528766 0 0 1-16.175654 38.203155z" fill="#6E6E96" /><path d="M1099.679757 262.606561a335.509647 335.509647 0 0 1 29.309925 9.687369 474.624777 474.624777 0 0 0-121.874992-127.83385c37.437177 33.669241 68.898599 73.601478 92.565067 118.146481z m-791.435549 29.416936a460.166942 460.166942 0 0 0-37.425912 82.731261 290.790047 290.790047 0 0 1 11.743119-3.215982 418.359184 418.359184 0 0 1 25.682793-79.515279z m941.11667 59.526632c55.032143 56.980881 88.746441 133.437881 88.746442 217.582822 0 176.214375-147.625371 319.041119-329.753548 319.041119H357.007722c-156.732625 0-283.789233-117.70717-283.789233-262.910699 0-35.651772 7.716102-69.619519 21.599455-100.619101C53.100301 573.542956 28.160957 635.28304 28.160957 702.446923c0 158.557455 138.75467 287.117858 309.911337 287.117858h711.300729c198.889578 0 360.11106-155.972279 360.111059-348.407366-0.011264-120.799243-63.598706-227.135019-160.123204-289.607286z" fill="#6E6E96" opacity=".15" /><path d="M105.558533 747.228478S47.637076 627.459926 167.788617 548.609245s208.391085 58.203067 255.324137 11.264383c46.933052-46.933052-25.097045-206.329703-198.410842-126.628562s-170.10908 219.728687-119.143379 313.983412z" fill="#6E6E96" opacity=".15" /><path d="M967.565441 398.421226s-15.026687 123.908213 71.337338 123.908213 15.021055-123.908213 82.607352-123.908213 226.836512 52.875014 211.055112 229.190769c0 0 51.52892-317.751348-246.847689-317.751348L967.565441 398.421226z" fill="#6E6E96" opacity=".15" /><path d="M1043.735199 1012.093547H332.440103c-183.305304 0-332.440103-138.906739-332.440103-309.646624 0-135.28524 94.795415-254.86793 232.203991-295.262007C285.698546 188.678415 488.215255 31.506479 719.078785 31.506479c184.16703 0 351.747255 97.797373 439.699557 255.898621 158.050558 48.245352 267.59105 192.3675 267.591051 353.746683 0 204.538666-171.6523 370.941764-382.634194 370.941764zM719.078785 76.564011c-214.479484 0-402.008932 148.678591-445.911865 353.527028l-2.934372 13.708754-13.601743 3.41874C132.057994 478.527886 45.057532 583.478142 45.057532 702.446923c0 145.890656 128.920863 264.589092 287.382571 264.589092h711.300728c186.138297 0 337.576662-146.189162 337.576662-325.8786 0-144.3587-100.292434-273.088069-243.885156-313.042835l-9.315645-2.590808-4.539546-8.538402c-78.794359-148.301234-233.792269-240.421358-404.498361-240.421359z" fill="#6E6E96" /></svg>