<?xml version="1.0" standalone="no"?><!DOCTYPE svg PUBLIC "-//W3C//DTD SVG 1.1//EN" "http://www.w3.org/Graphics/SVG/1.1/DTD/svg11.dtd"><svg class="icon" width="200px" height="196.92px" viewBox="0 0 1040 1024" version="1.1" xmlns="http://www.w3.org/2000/svg"><path d="M358.392 944.752h-20.064s9.084 1.968 20.064 0z m303.316-55.496v-68.048H396.46v65.4c0 42.86-21.26 55.132-38.072 58.14h38.072v18.172h265.248v-18.172h58.136c-53.192 0.004-57.828-44.124-58.136-55.492z" fill="#FFFFFF" /><path d="M677.708 978.92H380.46v-18.172H359.72a73.48 73.48 0 0 1-11.412 0.876c-7.288 0-12.416-1.032-13.372-1.24l3.388-31.636h18.584c7.156-1.428 23.548-6.652 23.548-42.14v-81.4h297.248v83.816c1.04 34.56 26.832 39.724 42.136 39.724v32h-42.136v18.172z m-265.248-32h233.248v-18.172h11.068c-7.32-12.044-10.708-25.988-11.064-39.06l-0.004-0.432v-52.048h-233.248v49.4c0 9.944-1.304 26.868-8.76 42.14h8.76v18.172z" fill="#6E6E96" /><path d="M338.328 944.752h381.516v59.252H338.328z" fill="#FFFFFF" /><path d="M719.844 1020.004H338.328a16 16 0 0 1-16-16v-59.252a16 16 0 0 1 16-16h381.516a16 16 0 0 1 16 16v59.252a16 16 0 0 1-16 16z m-365.516-32h349.516v-27.252H354.328v27.252z" fill="#6E6E96" /><path d="M795.42 1020H719.84v-32h75.58c12.264-0.328 14.884-8.272 14.884-14.884 0-13.388 5.172-21.64 9.512-26.212 6-6.32 14.292-9.8 23.348-9.8 18.808 0 39.108 15.852 39.108 41.456 0 4.164 1.172 5.18 1.56 5.516 2.82 2.448 10.28 2.892 14.58 2.284l2.384-0.18h43.596v32H901.84c-5.756 0.688-25.12 1.908-38.772-9.756-5.836-4.988-12.792-14.216-12.792-29.864 0-4.588-2-6.984-3.68-8.184-1.592-1.144-3.032-1.336-3.66-1.264-0.204 0.424-0.628 1.604-0.628 4.004-0.004 34.4-28.044 46.884-46.888 46.884z" fill="#6E6E96" /><path d="M396.46 821.22h265.248v49.748H396.46z" fill="#6E6E96" opacity=".15" /><path d="M64 723.108V138.12c0-39.968 32.7-72.668 72.668-72.668h784.828c39.976 0 72.672 32.7 72.672 72.668v584.992" fill="#A8A8BF" /><path d="M996.168 723.108h-4V138.12c0-38.968-31.704-70.668-70.672-70.668H136.668c-38.968 0-70.668 31.7-70.668 70.668v584.992h-4V138.12c0-41.172 33.496-74.668 74.668-74.668h784.828c41.176 0 74.672 33.496 74.672 74.668v584.988z" fill="#6E6E96" /><path d="M64 723.108V138.12c0-39.968 32.7-72.668 72.668-72.668h784.828c39.976 0 72.672 32.7 72.672 72.668v584.992" fill="#A8A8BF" /><path d="M1010.168 723.108h-32V138.12c0-31.248-25.42-56.668-56.672-56.668H136.668C105.42 81.452 80 106.872 80 138.12v584.992h-32V138.12c0-48.892 39.776-88.668 88.668-88.668h784.828c48.896 0 88.672 39.776 88.672 88.668v584.988z" fill="#6E6E96" /><path d="M922.124 585.788a17.2 17.2 0 0 1-17.148 17.148H153.844a17.2 17.2 0 0 1-17.148-17.148V153.708a17.2 17.2 0 0 1 17.148-17.148h751.124a17.196 17.196 0 0 1 17.148 17.148v432.084h0.008v-0.004z" fill="#A1C4ED" /><path d="M904.976 618.936H153.844c-18.276 0-33.148-14.872-33.148-33.148V153.708c0-18.276 14.872-33.148 33.148-33.148h751.124c18.276 0 33.148 14.868 33.148 33.148v432.084a32.876 32.876 0 0 1-9.72 23.424 32.912 32.912 0 0 1-23.42 9.72zM153.844 152.56a1.208 1.208 0 0 0-1.148 1.148v432.084c0 0.588 0.56 1.148 1.148 1.148h751.132c0.6 0 1.148-0.548 1.148-1.148l-0.008-432.084a1.196 1.196 0 0 0-1.148-1.148H153.844z" fill="#6E6E96" /><path d="M994.168 664.972v83.568c0 39.968-32.7 72.672-72.668 72.672H136.668C96.7 821.22 64 788.508 64 748.54v-83.568" fill="#FFFFFF" /><path d="M136.652 823.212c-19.856 0-38.58-7.788-52.72-21.928-14.144-14.144-21.932-32.876-21.932-52.744v-83.568h4v83.568c0 18.796 7.372 36.524 20.76 49.916 13.384 13.388 31.104 20.756 49.896 20.756H921.5c38.964 0 70.668-31.704 70.668-70.672v-83.568h4v83.568c0 41.176-33.496 74.672-74.668 74.672H136.652z" fill="#6E6E96" /><path d="M136.652 837.212c-23.596 0-45.832-9.248-62.62-26.032-16.788-16.788-26.032-39.036-26.032-62.64v-83.568h32v83.568c0 15.06 5.916 29.268 16.66 40.016 10.74 10.74 24.944 16.656 39.996 16.656h784.844c31.248 0 56.668-25.42 56.668-56.672v-83.568h32v83.568c0 48.896-39.776 88.672-88.668 88.672H136.652z" fill="#6E6E96" /><path d="M577.34 265.856l19.32 25.508-127.916 96.892-19.32-25.504zM577.34 365.88l19.32 25.504-127.912 96.896-19.32-25.508z" fill="#6E6E96" opacity=".23" /><path d="M64 648.972h930.168v32H64z" fill="#6E6E96" /><path d="M86.524 777.356h889.392v32H86.524z" fill="#6E6E96" opacity=".15" /><path d="M136.696 149.892H907.44v39.952H136.696z" fill="#6E6E96" opacity=".15" /><path d="M645.176 944.752h74.668v59.252h-74.668z" fill="#6E6E96" opacity=".15" /></svg>