<?xml version="1.0" standalone="no"?><!DOCTYPE svg PUBLIC "-//W3C//DTD SVG 1.1//EN" "http://www.w3.org/Graphics/SVG/1.1/DTD/svg11.dtd"><svg class="icon" width="200px" height="196.73px" viewBox="0 0 1041 1024" version="1.1" xmlns="http://www.w3.org/2000/svg"><path d="M564.149397 797.907962l-1.070327-612.032005c0-17.925901-17.87197-28.890529-17.87197-28.89053l-167.269693-70.093966c-11.611802 0-26.807955 6.99861-26.807955 18.614561v826.192803c0 6.011255 0.174239 4.658826 0.174239 17.369995 0 16.299668 23.58038 25.310327 34.171638 14.706623l164.486013-129.692091c0.008297-0.020743 14.188054-11.524683 14.188055-36.17539z" fill="#9F9FB5" /><path d="M393.336839 146.950076l169.796162 54.536889v-29.172631L393.336839 93.342462z" fill="#FFFFFF" opacity=".15" /><path d="M564.124505 781.098022l-170.787666 109.774884v66.700449l172.484425-139.345776z" fill="#6E6E96" opacity=".25" /><path d="M373.506752 984.945514c-0.004149 0-0.004149 0 0 0-18.739018 0-38.797276-14.420373-38.797276-35.876694 0-7.289009-0.05808-9.798884-0.107863-11.844122a197.989734 197.989734 0 0 1-0.066377-5.521725V105.506022c0-21.746719 22.530796-35.208777 43.402171-35.208776h3.335437l172.61303 72.545761c2.642629 1.617936 25.787411 16.585918 25.787411 43.037098l1.070327 612.002966c0 24.256595-10.711566 39.170646-16.681335 45.596755l-0.365073 0.908534-167.323623 131.928162c-6.007106 5.571508-14.080192 8.628992-22.866829 8.628992zM367.723667 106.763034v824.939939c0 2.26511 0.024891 3.393517 0.05808 4.741797 0.049783 2.177991 0.11616 4.857957 0.11616 12.628198 0.311142 0.862899 2.962067 2.688263 5.608845 2.688263 0.248913 0 0.43145-0.016594 0.555906-0.037337l1.140852-0.97491 164.12094-129.401693c0.950019-0.904385 8.234879-8.334445 8.23488-23.431032l-1.070327-612.002965c0-6.753846-6.986165-12.56597-9.251275-14.271026l-162.050812-67.911827c-3.285655 0.564203-6.222831 1.983009-7.463249 3.032593z" fill="#6E6E96" /><path d="M393.336839 944.140338a26.264495 26.264495 0 0 1-26.268643 26.260346l-304.512152 1.418805c-24.186069-2.762937-39.863454-17.228944-39.863454-44.563765V121.063099c0-7.322198 4.293753-37.341133 37.220825-37.341133l307.154781 1.140852a26.268643 26.268643 0 0 1 26.268643 26.268643v833.008877z" fill="#9F9FB5" /><path d="M348.92657 308.386901H69.110759V257.164707l279.815811 0.215724zM350.133799 220.512233h-282.226121V167.257247l282.226121 0.207427z" fill="#6E6E96" /><path d="M114.321699 417.108053m-31.155639 0a31.15564 31.15564 0 1 0 62.311279 0 31.15564 31.15564 0 1 0-62.311279 0Z" fill="#7ECF9F" /><path d="M114.321699 464.857908c-26.330871 0-47.749855-21.423132-47.749855-47.749855s21.423132-47.749855 47.749855-47.749855 47.749855 21.418984 47.749855 47.749855-21.418984 47.749855-47.749855 47.749855z m0-62.311279a14.578018 14.578018 0 0 0-14.561424 14.561424 14.578018 14.578018 0 0 0 14.561424 14.561424 14.582167 14.582167 0 0 0 14.561424-14.561424 14.582167 14.582167 0 0 0-14.561424-14.561424z" fill="#6E6E96" /><path d="M310.440435 556.047271h33.188431v329.548674h-33.188431zM251.373325 556.868684h33.188431v329.540378h-33.188431zM192.314512 557.694247h33.188431v329.548674h-33.188431zM133.247402 558.51566h33.188431v329.548675h-33.188431zM74.18444 559.345371h33.188432v329.540378h-33.188432z" fill="#6E6E96" opacity=".48" /><path d="M367.068196 913.32488l-304.508003 1.418805c-24.186069-2.762937-39.863454-17.224796-39.863455-44.572063v45.667281c0 27.33897 15.677385 41.800829 39.863455 44.563766l304.508003-1.410508a26.264495 26.264495 0 0 0 26.268643-26.268643v-45.658984a26.260346 26.260346 0 0 1-26.268643 26.260346z" fill="#6E6E96" opacity=".25" /><path d="M32.823358 86.903907h360.51763v48.633497H32.823358z" fill="#FFFFFF" opacity=".15" /><path d="M61.651659 988.413705l-0.979058-0.107863c-34.171638-3.903789-54.574226-26.729133-54.574227-61.054267V121.063099c0-21.680343 14.333254-53.935349 53.815041-53.935349l307.217009 1.140853c23.576232 0 42.80063 19.228547 42.800631 42.862858v833.004728c0 23.630163-19.228547 42.854562-42.862859 42.854562l-305.416537 1.422954z m-1.800472-888.097524c-19.568729 0-20.564382 17.282875-20.564382 20.746918v806.188476c0 17.121082 7.483991 25.783262 24.235852 27.965402l303.466716-1.414657a9.699319 9.699319 0 0 0 9.753251-9.666131V111.131461a9.682725 9.682725 0 0 0-9.674428-9.674427l-307.217009-1.140853z" fill="#6E6E96" /><path d="M493.383364 834.083352l164.49431 129.69624c10.595407 10.599555 34.171638 1.588896 34.171639-14.706624 0-12.702872 0.170091-11.350443 0.17009-17.374143V105.506022c0-11.615951-15.192004-18.614561-26.812103-18.614561L498.133459 156.981279s-17.87197 10.968776-17.87197 28.890529l-1.070327 612.044451c0 24.646559 14.183906 36.154647 14.192202 36.167093z" fill="#9F9FB5" /><path d="M650.016165 93.342462l-169.800311 78.971872v29.172631l169.800311-54.536889z" fill="#FFFFFF" opacity=".15" /><path d="M477.527592 818.231728l172.488573 139.341627v-66.700449l-170.791815-109.774884z" fill="#6E6E96" opacity=".25" /><path d="M669.850401 984.949662c-8.786637 0-16.859723-3.057484-22.870978-8.63314l-164.220505-129.488813c-2.06598-1.717501-20.161972-17.689434-20.161972-48.91145l1.070327-612.073491c0-26.417991 23.148931-41.385974 25.787411-43.008058l2.26511-1.161595 170.352068-71.380018h3.335438c20.875523 0 43.406319 13.462057 43.406319 35.208777v826.192802c0 2.63848-0.02904 3.95772-0.066377 5.521725-0.049783 2.045237-0.103714 4.563409-0.103714 11.84827 0 10.280117-4.862105 20.070704-13.341749 26.874332-7.127216 5.729153-16.407531 9.010659-25.451378 9.010659z m-0.560055-33.225768c0.124457 0.020743 0.306993 0.041486 0.560055 0.041486 2.642629 0 5.293555-1.825364 5.617142-2.742194-0.012446-7.703865 0.049783-10.379682 0.099565-12.561821 0.033188-1.344131 0.05808-2.484984 0.05808-4.754243V106.763034c-1.236269-1.045436-4.177594-2.46839-7.467397-3.032593l-162.050812 67.90353c-2.273408 1.696759-9.251275 7.454951-9.251275 14.241986l-1.070327 612.073491c0 14.951388 7.181147 22.385597 8.243177 23.401992l165.261792 130.372454z" fill="#6E6E96" /><path d="M650.016165 944.140338V111.127313a26.268643 26.268643 0 0 1 26.268643-26.268643l307.154781-1.140853c32.931221 0 37.224974 30.018936 37.224974 37.341134V927.243278c0 27.343119-15.681534 41.809126-39.863455 44.572063l-304.512151-1.418806a26.252049 26.252049 0 0 1-26.272792-26.256197z" fill="#9F9FB5" /><path d="M694.426434 257.376283l279.811662-0.215725v51.226343H694.426434zM693.219205 167.464674l282.221972-0.211576v53.259135h-282.221972z" fill="#6E6E96" /><path d="M929.027156 417.108053m-31.15564 0a31.15564 31.15564 0 1 0 62.31128 0 31.15564 31.15564 0 1 0-62.31128 0Z" fill="#7ECF9F" /><path d="M929.027156 464.857908c-26.330871 0-47.749855-21.423132-47.749855-47.749855s21.418984-47.749855 47.749855-47.749855 47.749855 21.418984 47.749855 47.749855-21.418984 47.749855-47.749855 47.749855z m0-62.311279a14.578018 14.578018 0 0 0-14.561424 14.561424c0 8.0316 6.529824 14.561424 14.561424 14.561424s14.561424-6.533972 14.561424-14.561424a14.578018 14.578018 0 0 0-14.561424-14.561424z" fill="#6E6E96" /><path d="M699.71584 556.047271h33.188431v329.548674h-33.188431zM758.78295 556.872833h33.188431v329.536229h-33.188431zM817.854209 557.694247h33.188431v329.552823h-33.188431zM876.913022 558.51566h33.188431v329.548675h-33.188431zM935.975984 559.345371h33.188431v329.544526h-33.188431z" fill="#6E6E96" opacity=".48" /><path d="M650.016165 887.072831v45.658984a26.260346 26.260346 0 0 0 26.268643 26.260346l304.508003 1.410508c24.181921-2.75464 39.859306-17.220647 39.859306-44.563766v-45.658984c0 27.33897-15.677385 41.800829-39.859306 44.563766l-304.508003-1.418805a26.2479 26.2479 0 0 1-26.268643-26.252049z" fill="#6E6E96" opacity=".25" /><path d="M650.016165 86.903907h360.513481v48.633497h-360.513481z" fill="#FFFFFF" opacity=".15" /><path d="M981.705493 988.413705l-305.499508-1.422954c-23.567935 0-42.784036-19.224399-42.784036-42.854562V111.127313c0-23.634311 19.228547-42.862859 42.862859-42.862859l307.092552-1.140852c19.668294 0 35.68586 8.458901 45.148712 23.812699 8.309553 13.4828 8.728557 27.459278 8.728558 30.12265V927.243278c0 34.329283-20.402588 57.154627-54.574227 61.062564l-0.97491 0.107863z m1.734096-888.101672l-307.092553 1.140852a9.699319 9.699319 0 0 0-9.736656 9.674428v833.008876a9.674428 9.674428 0 0 0 9.657834 9.666131l303.562133 1.414657c16.751861-2.186288 24.24-10.84432 24.24-27.973699V121.058951c-0.004149-3.464042-0.999801-20.746918-20.630758-20.746918z" fill="#6E6E96" /></svg>