<?xml version="1.0" standalone="no"?><!DOCTYPE svg PUBLIC "-//W3C//DTD SVG 1.1//EN" "http://www.w3.org/Graphics/SVG/1.1/DTD/svg11.dtd"><svg class="icon" width="200px" height="200.00px" viewBox="0 0 1024 1024" version="1.1" xmlns="http://www.w3.org/2000/svg"><path d="M668.595347 789.958019c0 117.066196-95.784292 212.842626-212.850487 212.842626H444.140837c-117.066196 0-212.846557-95.77643-212.846557-212.842626V468.445605c0-117.066196 95.780361-212.846557 212.846557-212.846557h11.596161c117.066196 0 212.850488 95.780361 212.850488 212.846557l0.007861 321.512414z" fill="#AAAABD" /><path d="M270.59937 841.059747V519.547332c0-117.066196 95.780361-212.846557 212.846557-212.846557h11.596161c44.552845 0 86.000276 13.903601 120.293467 37.540116-38.47567-55.799155-102.797021-92.572745-175.326096-92.572745h-11.596161C311.347102 251.668146 215.566741 347.448507 215.566741 464.514702v321.512415c0 72.513351 36.769658 136.838633 92.568814 175.310372-23.636514-34.281397-37.536184-75.728829-37.536185-120.277742z" fill="#FFFFFF" opacity=".15" /><path d="M231.286418 483.681781H668.595347v31.447217H231.286418z" fill="#6E6E96" /><path d="M468.944829 499.40539h-31.447217l0.035378-320.907056c0.161167-2.460745 4.441919-60.56734 46.931041-83.991585C513.285405 78.618042 550.872691 83.044238 596.172407 107.659547l0.397021 0.220131c0.554257 0.322334 55.889566 32.453528 96.224553 53.888737 31.907132 16.953981 51.251102 21.435209 62.693958 14.55613 11.175555-6.717912 24.497382-30.079263 24.497382-103.225489V11.792706h31.447216v61.310281c0 72.513351-12.629988 113.878234-39.745351 130.175754-28.01947 16.847846-63.067393 2.511846-93.649812-13.738503-39.631355-21.057843-93.33534-52.186656-97.069696-54.352583-35.110818-19.037359-62.434518-23.483209-81.2203-13.196039-25.959678 14.214142-30.378012 53.648952-30.802549 58.185213v319.228561z" fill="#6E6E96" /><path d="M455.74486 1018.524253H444.140837c-126.032583 0-228.570165-102.533651-228.570165-228.566234V468.445605c0-126.032583 102.537582-228.570165 228.570165-228.570165h11.596161c126.036514 0 228.574096 102.533651 228.574096 228.570165v321.512414c0.003931 60.818917-23.83699 118.155056-67.128015 161.438219-43.287094 43.291025-100.623232 67.128015-161.438219 67.128015zM444.140837 271.322656c-108.693374 0-197.122948 88.429574-197.122948 197.122949v321.512414c0 108.689443 88.429574 197.119017 197.122948 197.119017h11.600092c108.697305 0 197.126879-88.429574 197.126879-197.119017l-0.003931-321.512414c0-108.693374-88.429574-197.122948-197.126879-197.122949h-11.596161z" fill="#6E6E96" /><path d="M594.482119 329.77124a187.559063 187.559063 0 0 1 20.098702 84.561566v268.692883c0 104.208215-85.253405 209.108269-189.461619 209.108269h-10.330411c-85.92952 0-158.934234-58.000461-181.898565-136.77967v33.42053c0 113.390802 92.777152 206.164023 206.167954 206.164023h11.234519c113.394733 0 206.171885-92.785013 206.171884-206.164023v-312.042872c0-57.399033-23.801612-109.487417-61.982464-146.960706z" fill="#6E6E96" opacity=".15" /><path d="M231.290349 499.40539h383.290472v57.799984H231.290349z" fill="#6E6E96" opacity=".15" /></svg>